<?xml version="1.0" encoding="UTF-8"?>
<svg version="1.1" xmlns="http://www.w3.org/2000/svg" width="256" height="256">
<path d="M0 0 C0.75941895 0.24137695 1.51883789 0.48275391 2.30126953 0.73144531 C31.68311688 10.15212232 56.35362506 28.94448434 73 55 C74.06154297 56.64548828 74.06154297 56.64548828 75.14453125 58.32421875 C80.85516781 67.72547702 84.6541032 77.55581919 88 88 C88.3410376 89.00232666 88.3410376 89.00232666 88.68896484 90.02490234 C95.50142889 110.66127498 94.9607454 139.50005867 88 160 C87.75862305 160.75941895 87.51724609 161.51883789 87.26855469 162.30126953 C77.84787768 191.68311688 59.05551566 216.35362506 33 233 C31.35451172 234.06154297 31.35451172 234.06154297 29.67578125 235.14453125 C20.27452298 240.85516781 10.44418081 244.6541032 0 248 C-0.66821777 248.2273584 -1.33643555 248.4547168 -2.02490234 248.68896484 C-22.66127498 255.50142889 -51.50005867 254.9607454 -72 248 C-72.75941895 247.75862305 -73.51883789 247.51724609 -74.30126953 247.26855469 C-103.68311688 237.84787768 -128.35362506 219.05551566 -145 193 C-146.06154297 191.35451172 -146.06154297 191.35451172 -147.14453125 189.67578125 C-152.85516781 180.27452298 -156.6541032 170.44418081 -160 160 C-160.3410376 158.99767334 -160.3410376 158.99767334 -160.68896484 157.97509766 C-167.50142889 137.33872502 -166.9607454 108.49994133 -160 88 C-159.75862305 87.24058105 -159.51724609 86.48116211 -159.26855469 85.69873047 C-149.84787768 56.31688312 -131.05551566 31.64637494 -105 15 C-103.90300781 14.29230469 -102.80601563 13.58460937 -101.67578125 12.85546875 C-92.27452298 7.14483219 -82.44418081 3.3458968 -72 0 C-71.33178223 -0.2273584 -70.66356445 -0.4547168 -69.97509766 -0.68896484 C-49.33872502 -7.50142889 -20.49994133 -6.9607454 0 0 Z " fill="#F0B90C" transform="translate(164,4)"/>
<path d="M0 0 C0.95519531 0.57878906 1.91039063 1.15757813 2.89453125 1.75390625 C4.36599609 2.66462891 4.36599609 2.66462891 5.8671875 3.59375 C7.82533991 4.79621387 9.78617473 5.99432335 11.75 7.1875 C12.61254395 7.72052734 13.47508789 8.25355469 14.36376953 8.80273438 C16.55388351 9.99153778 18.28515262 10.73589057 20.7421875 11.09375 C22.63696556 10.2147363 22.63696556 10.2147363 24.4921875 8.71875 C28.85751133 5.64631742 33.32206068 2.84596533 37.9296875 0.15625 C38.60676758 -0.25737793 39.28384766 -0.67100586 39.98144531 -1.09716797 C43.16365333 -2.93329731 45.0683334 -3.9217409 48.80078125 -3.8359375 C61.32719492 0.12327426 61.32719492 0.12327426 64.7421875 5.09375 C66.37906603 11.58566179 65.53606662 18.51723656 64.7421875 25.09375 C61.07643479 27.21240761 57.41024697 29.33030968 53.74365234 31.44750977 C52.49613624 32.16800469 51.2487397 32.88870668 50.00146484 33.60961914 C48.20962342 34.64523791 46.41735466 35.68011357 44.625 36.71484375 C43.54621582 37.3380249 42.46743164 37.96120605 41.35595703 38.60327148 C39.837773 39.46900224 38.30535672 40.31216539 36.7421875 41.09375 C36.79044678 42.07657959 36.83870605 43.05940918 36.88842773 44.07202148 C38.04130055 71.12816575 38.04130055 71.12816575 34.28710938 77.60351562 C30.42075181 81.41982325 26.01707193 83.11356202 20.7421875 84.09375 C16.7421875 83.09375 16.7421875 83.09375 2.7421875 75.09375 C2.7421875 63.87375 2.7421875 52.65375 2.7421875 41.09375 C1.0921875 40.43375 -0.5578125 39.77375 -2.2578125 39.09375 C-23.63399009 29.87575607 -23.63399009 29.87575607 -27.61425781 22.62158203 C-29.33597732 16.64520704 -29.02591207 10.69811028 -26.2578125 5.09375 C-19.11187789 -3.52001094 -9.57233824 -5.89999905 0 0 Z " fill="#FEFDFC" transform="translate(108.2578125,96.90625)"/>
<path d="M0 0 C2.28564453 1.13232422 2.28564453 1.13232422 4.6328125 2.5546875 C5.51308105 3.08215576 6.39334961 3.60962402 7.30029297 4.15307617 C8.23244629 4.72131104 9.16459961 5.2895459 10.125 5.875 C12.08790347 7.05705001 14.05145849 8.23801868 16.015625 9.41796875 C17.00755859 10.01528809 17.99949219 10.61260742 19.02148438 11.22802734 C21.88668234 12.93258528 24.77146697 14.59447957 27.671875 16.23828125 C28.54956543 16.73666504 29.42725586 17.23504883 30.33154297 17.74853516 C32.00458169 18.69505947 33.68062293 19.63629957 35.35986328 20.57177734 C36.47723877 21.20720459 36.47723877 21.20720459 37.6171875 21.85546875 C38.60114502 22.40690552 38.60114502 22.40690552 39.60498047 22.96948242 C40.06533691 23.30955322 40.52569336 23.64962402 41 24 C41 24.66 41 25.32 41 26 C38.63415582 27.70221745 36.29601902 29.23909634 33.8125 30.75 C33.13896484 31.18699219 32.46542969 31.62398437 31.77148438 32.07421875 C31.11083984 32.47769531 30.45019531 32.88117188 29.76953125 33.296875 C29.16729736 33.67166992 28.56506348 34.04646484 27.94458008 34.43261719 C25.06598089 35.27252485 23.64187707 34.32031797 21 33 C19.20129454 32.00621861 17.42080026 30.97901681 15.65625 29.92578125 C14.65722656 29.34119141 13.65820312 28.75660156 12.62890625 28.15429688 C10.53782763 26.92340602 8.45187956 25.68375859 6.37109375 24.43554688 C5.37207031 23.85482422 4.37304688 23.27410156 3.34375 22.67578125 C2.43818359 22.13864502 1.53261719 21.60150879 0.59960938 21.0480957 C-2.55480054 19.77631868 -3.8089302 19.89663865 -7 21 C-8.89337573 22.00628523 -10.74584283 23.09150503 -12.5625 24.23046875 C-13.60664062 24.86791016 -14.65078125 25.50535156 -15.7265625 26.16210938 C-17.91411402 27.51562425 -20.09641289 28.87766444 -22.2734375 30.24804688 C-23.83964844 31.1984082 -23.83964844 31.1984082 -25.4375 32.16796875 C-26.38496094 32.75860107 -27.33242187 33.3492334 -28.30859375 33.95776367 C-31 35 -31 35 -33.65307617 34.28051758 C-34.81480347 33.64666138 -34.81480347 33.64666138 -36 33 C-37.02738281 32.4534375 -38.05476563 31.906875 -39.11328125 31.34375 C-40.69689453 30.43109375 -40.69689453 30.43109375 -42.3125 29.5 C-43.91544922 28.58734375 -43.91544922 28.58734375 -45.55078125 27.65625 C-46.76314453 26.83640625 -46.76314453 26.83640625 -48 26 C-48 25.34 -48 24.68 -48 24 C-46.09838867 22.66235352 -46.09838867 22.66235352 -43.41796875 21.12890625 C-42.43159424 20.55922119 -41.44521973 19.98953613 -40.42895508 19.40258789 C-39.3592749 18.79535889 -38.28959473 18.18812988 -37.1875 17.5625 C-34.98677586 16.30243835 -32.78625772 15.04201684 -30.5859375 13.78125 C-29.47959961 13.14960937 -28.37326172 12.51796875 -27.23339844 11.8671875 C-24.2499189 10.14432043 -21.29626382 8.38186795 -18.3515625 6.59375 C-17.06922729 5.82309204 -17.06922729 5.82309204 -15.76098633 5.03686523 C-14.16055617 4.0731602 -12.56630214 3.09910309 -10.97924805 2.11352539 C-10.260354 1.68547607 -9.54145996 1.25742676 -8.80078125 0.81640625 C-7.87519409 0.25095093 -7.87519409 0.25095093 -6.9309082 -0.32592773 C-4.256169 -1.2596684 -2.69187828 -0.81557242 0 0 Z " fill="#FEFCF8" transform="translate(131,44)"/>
<path d="M0 0 C0 17.49 0 34.98 0 53 C-6.4659375 56.6815625 -6.4659375 56.6815625 -13.0625 60.4375 C-22.29076112 65.69592806 -31.47536299 71.00322698 -40.5078125 76.59375 C-43 78 -43 78 -45 78 C-46.35074054 61.1574328 -46.35074054 61.1574328 -43.59375 56.75390625 C-41.15710655 55.17477386 -38.67415245 54.13985748 -36 53 C-32.98307232 51.27083762 -30.02996353 49.43742726 -27.0625 47.625 C-25.57845798 46.73507962 -24.09041673 45.85177969 -22.59765625 44.9765625 C-21.95320557 44.59580566 -21.30875488 44.21504883 -20.64477539 43.82275391 C-19 43 -19 43 -17 43 C-17.11782837 41.52575562 -17.11782837 41.52575562 -17.23803711 40.02172852 C-19.22974713 12.86141696 -19.22974713 12.86141696 -15.56005859 6.50634766 C-11.45554532 2.53985644 -5.76393852 0 0 0 Z " fill="#FEFCF8" transform="translate(201,119)"/>
<path d="M0 0 C0.7613324 0.30703354 1.52266479 0.61406708 2.30706787 0.93040466 C4.22108648 1.69062634 6.14963519 2.41470153 8.08691406 3.11352539 C11.70472976 4.73153928 14.20477519 6.16889779 17 9 C18.51597812 14.86793343 18.14107903 20.43542075 17.75 26.4375 C17.68974761 28.04342066 17.63500484 29.64955806 17.5859375 31.25585938 C17.4542286 35.17595515 17.24764713 39.08558791 17 43 C18.07459473 43.40206665 18.07459473 43.40206665 19.17089844 43.81225586 C22.03580753 45.01503311 24.59496271 46.41859376 27.265625 48.00390625 C28.23757812 48.57947266 29.20953125 49.15503906 30.2109375 49.74804688 C31.21382812 50.34681641 32.21671875 50.94558594 33.25 51.5625 C34.26835938 52.16513672 35.28671875 52.76777344 36.3359375 53.38867188 C43.85498768 57.85498768 43.85498768 57.85498768 45 59 C45.08651611 60.41570123 45.10704904 61.835595 45.09765625 63.25390625 C45.09443359 64.10791016 45.09121094 64.96191406 45.08789062 65.84179688 C45.07532227 67.18854492 45.07532227 67.18854492 45.0625 68.5625 C45.05798828 69.46419922 45.05347656 70.36589844 45.04882812 71.29492188 C45.03700225 73.53001314 45.0205222 75.76497437 45 78 C41.51752465 76.6783657 38.31651263 75.15006158 35.078125 73.3125 C34.13324219 72.77753906 33.18835938 72.24257812 32.21484375 71.69140625 C31.23644531 71.13324219 30.25804688 70.57507813 29.25 70 C28.31800781 69.47277344 27.38601562 68.94554687 26.42578125 68.40234375 C24.42494632 67.26629922 22.44175087 66.09879624 20.47436523 64.90576172 C17.76548993 63.41988718 15.34852101 62.34779013 12.48071289 61.28564453 C7.60633399 59.29374631 3.21993101 57.30362975 0 53 C-2.80541239 44.35911794 -1.58911035 34.79639883 -1.0625 25.875 C-0.97715496 23.36744303 -0.89960065 20.85960803 -0.83007812 18.3515625 C-0.64341308 12.2282772 -0.35971706 6.1154299 0 0 Z " fill="#FEFDF9" transform="translate(54,119)"/>
<path d="M0 0 C2.34255628 1.29897904 4.56896952 2.61433484 6.8125 4.0625 C7.40998047 4.43955078 8.00746094 4.81660156 8.62304688 5.20507812 C10.08636577 6.12989566 11.54379523 7.06402065 13 8 C9.99221774 11.42930043 7.57197974 12.54415646 3.3125 14 C0.23452104 15.33692832 0.23452104 15.33692832 -2 18 C-3.73771852 24.44027823 -3.3142834 31.38985072 -3 38 C-4.52216235 37.25270098 -6.04265263 36.50199602 -7.5625 35.75 C-8.40941406 35.33234375 -9.25632812 34.9146875 -10.12890625 34.484375 C-13.48045224 32.75160292 -16.73421411 30.8892309 -20 29 C-22.37033314 11.22614815 -22.37033314 11.22614815 -18.60839844 6.10595703 C-13.67877047 1.82410662 -6.52291327 -2.54017296 0 0 Z " fill="#FEFCF7" transform="translate(74,77)"/>
<path d="M0 0 C2.45395703 1.31303357 4.85378131 2.65252986 7.25 4.0625 C7.8996875 4.43955078 8.549375 4.81660156 9.21875 5.20507812 C10.81505091 6.13234115 12.40787529 7.06558456 14 8 C15.47192955 25.93992766 15.47192955 25.93992766 12.171875 30.55859375 C9.82464851 32.05475633 7.61563638 33.06364614 5 34 C3.576875 34.928125 3.576875 34.928125 2.125 35.875 C0 37 0 37 -3 37 C-3 30.73 -3 24.46 -3 18 C-5.475 17.01 -5.475 17.01 -8 16 C-9.96103977 14.83025698 -11.89851383 13.62024401 -13.8125 12.375 C-14.78832031 11.74335937 -15.76414063 11.11171875 -16.76953125 10.4609375 C-17.50558594 9.97882813 -18.24164063 9.49671875 -19 9 C-16.40107636 6.08632783 -13.39953323 4.2464451 -10.0625 2.25 C-9.02222656 1.61578125 -7.98195312 0.9815625 -6.91015625 0.328125 C-3.6848035 -1.14384807 -3.18723046 -1.09454643 0 0 Z " fill="#FEFCF6" transform="translate(187,77)"/>
<path d="M0 0 C0.92343915 6.56825696 1.85846654 13.53886312 0 20 C-3.63918185 24.82925816 -9.36888484 27.2552296 -15 29 C-17.5625 28.87890625 -17.5625 28.87890625 -20 28 C-21.64935547 27.41605469 -21.64935547 27.41605469 -23.33203125 26.8203125 C-30.67792533 23.24217778 -30.67792533 23.24217778 -33 20 C-34.63901803 13.81863759 -33.73903185 7.26597948 -33 1 C-28.51919807 1.99113968 -25.40243664 4.25602272 -21.6328125 6.8203125 C-18.20094543 8.35803335 -16.58730607 8.05294498 -13 7 C-9.78415194 5.40296492 -9.78415194 5.40296492 -6.6875 3.4375 C-1.06438632 0 -1.06438632 0 0 0 Z " fill="#FEFCF8" transform="translate(144,185)"/>
<path d="M0 0 C3.95655292 0.87630877 7.23146454 2.61035721 10.75 4.5625 C13.84375 6.2640625 13.84375 6.2640625 17 8 C17 14.6 17 21.2 17 28 C14.525 27.01 14.525 27.01 12 26 C10.97261719 25.65066406 9.94523437 25.30132812 8.88671875 24.94140625 C5.12657302 23.32073294 2.76995873 22.05172292 0 19 C-1.54401783 12.81840942 -0.67522164 6.25830429 0 0 Z " fill="#FEFAF2" transform="translate(82,136)"/>
<path d="M0 0 C0.66 0 1.32 0 2 0 C2.92169718 6.55586658 3.89176344 13.55852573 2 20 C-1.72182942 24.73148134 -7.48118687 26.99090398 -13 29 C-13.66 29 -14.32 29 -15 29 C-15 22.4 -15 15.8 -15 9 C-8.0625 5.0625 -8.0625 5.0625 -5.87524414 3.82446289 C-2.75280646 2.1693196 -2.75280646 2.1693196 0 0 Z " fill="#FEFBF5" transform="translate(171,135)"/>
<path d="M0 0 C2.45395703 1.31303357 4.85378131 2.65252986 7.25 4.0625 C7.8996875 4.43955078 8.549375 4.81660156 9.21875 5.20507812 C10.81505091 6.13234115 12.40787529 7.06558456 14 8 C14 8.66 14 9.32 14 10 C13.33613281 10.32613281 12.67226562 10.65226562 11.98828125 10.98828125 C10.66376953 11.64376953 10.66376953 11.64376953 9.3125 12.3125 C7.93964844 12.99119141 7.93964844 12.99119141 6.5390625 13.68359375 C3.89647102 14.99489548 3.89647102 14.99489548 1.1875 16.875 C-1.75593954 18.38876891 -2.8355111 17.93516409 -6 17 C-8.34255628 15.70102096 -10.56896952 14.38566516 -12.8125 12.9375 C-13.40998047 12.56044922 -14.00746094 12.18339844 -14.62304688 11.79492188 C-16.08636577 10.87010434 -17.54379523 9.93597935 -19 9 C-15.76004418 6.33964271 -12.49647733 3.90429732 -8.9375 1.6875 C-8.10089844 1.15511719 -7.26429687 0.62273437 -6.40234375 0.07421875 C-3.56529659 -1.19437957 -2.86905906 -0.94810178 0 0 Z " fill="#FEFBF4" transform="translate(130,77)"/>
<path d="M0 0 C1.98 0.66 3.96 1.32 6 2 C6 2.66 6 3.32 6 4 C6.70125 4.0825 7.4025 4.165 8.125 4.25 C11.65272947 5.17027725 14.06111614 6.88126977 17 9 C16.34 9.66 15.68 10.32 15 11 C12.4945424 9.55041382 9.99581801 8.09101202 7.5 6.625 C6.78457031 6.2125 6.06914062 5.8 5.33203125 5.375 C3.52075689 4.30548562 1.75595814 3.1580962 0 2 C0 1.34 0 0.68 0 0 Z " fill="#F0BB1D" transform="translate(143,50)"/>
<path d="M0 0 C1.98 0.66 3.96 1.32 6 2 C6 2.66 6 3.32 6 4 C7.65 4.33 9.3 4.66 11 5 C10.01 5.66 9.02 6.32 8 7 C6.66144944 6.21718695 5.32926356 5.42348123 4 4.625 C3.2575 4.18414062 2.515 3.74328125 1.75 3.2890625 C1.1725 2.86367187 0.595 2.43828125 0 2 C0 1.34 0 0.68 0 0 Z " fill="#F0BB1E" transform="translate(85,168)"/>
<path d="M0 0 C4.87362847 0.45336079 7.39042389 1.7089159 11 5 C10.01 5.495 10.01 5.495 9 6 C6.8359375 5.00390625 6.8359375 5.00390625 4.375 3.5625 C3.55773437 3.08941406 2.74046875 2.61632812 1.8984375 2.12890625 C1.27195312 1.75636719 0.64546875 1.38382813 0 1 C0 0.67 0 0.34 0 0 Z " fill="#F0BA1D" transform="translate(114,175)"/>
<path d="M0 0 C2.97 0.495 2.97 0.495 6 1 C6 1.66 6 2.32 6 3 C6.99 3 7.98 3 9 3 C8.67 3.99 8.34 4.98 8 6 C6.66402348 5.19185349 5.331275 4.37836819 4 3.5625 C3.2575 3.11003906 2.515 2.65757813 1.75 2.19140625 C1.1725 1.79824219 0.595 1.40507813 0 1 C0 0.67 0 0.34 0 0 Z " fill="#F0BB1E" transform="translate(56,119)"/>
<path d="M0 0 C2.97 0.33 5.94 0.66 9 1 C8.01 2.485 8.01 2.485 7 4 C3.38144425 3.37611108 2.8290723 2.8290723 0 0 Z " fill="#F1BF2B" transform="translate(122,105)"/>
<path d="M0 0 C0 3 0 3 -1.3125 4.60546875 C-1.869375 5.12753906 -2.42625 5.64960938 -3 6.1875 C-3.556875 6.71730469 -4.11375 7.24710938 -4.6875 7.79296875 C-5.120625 8.19128906 -5.55375 8.58960938 -6 9 C-6.66 8.67 -7.32 8.34 -8 8 C-5.36 5.36 -2.72 2.72 0 0 Z " fill="#F7EB00" transform="translate(223,215)"/>
<path d="M0 0 C1.12894876 0.93274109 2.25300876 1.87140122 3.375 2.8125 C4.00148438 3.33457031 4.62796875 3.85664063 5.2734375 4.39453125 C7 6 7 6 9 9 C5.18063472 7.44396229 2.73955562 5.04395069 0 2 C0 1.34 0 0.68 0 0 Z " fill="#F7E600" transform="translate(32,215)"/>
<path d="M0 0 C3.81684226 1.55500981 6.19195732 4.03595495 9 7 C8.67 7.66 8.34 8.32 8 9 C6.66368764 7.6905332 5.33102075 6.37734515 4 5.0625 C3.2575 4.33160156 2.515 3.60070313 1.75 2.84765625 C0 1 0 1 0 0 Z " fill="#F7EB00" transform="translate(215,32)"/>
<path d="M0 0 C0.66 0.33 1.32 0.66 2 1 C-0.64 3.64 -3.28 6.28 -6 9 C-6 6 -6 6 -4.6875 4.39453125 C-4.130625 3.87246094 -3.57375 3.35039063 -3 2.8125 C-2.443125 2.28269531 -1.88625 1.75289062 -1.3125 1.20703125 C-0.6628125 0.60955078 -0.6628125 0.60955078 0 0 Z " fill="#F7EB00" transform="translate(39,32)"/>
<path d="M0 0 C0.99 0.33 1.98 0.66 3 1 C1.35 1.33 -0.3 1.66 -2 2 C-1.34 1.34 -0.68 0.68 0 0 Z " fill="#F4AD00" transform="translate(170,250)"/>
<path d="M0 0 C2.475 0.495 2.475 0.495 5 1 C4.01 1.33 3.02 1.66 2 2 C1.34 1.34 0.68 0.68 0 0 Z " fill="#FFAD00" transform="translate(83,250)"/>
<path d="M0 0 C0.33 0.99 0.66 1.98 1 3 C0.34 3.66 -0.32 4.32 -1 5 C-0.67 3.35 -0.34 1.7 0 0 Z " fill="#FFAD00" transform="translate(251,168)"/>
<path d="M0 0 C0.66 0.66 1.32 1.32 2 2 C1.67 2.99 1.34 3.98 1 5 C0.67 3.35 0.34 1.7 0 0 Z " fill="#F4AD00" transform="translate(4,168)"/>
<path d="M0 0 C0.66 0.66 1.32 1.32 2 2 C1.67 2.99 1.34 3.98 1 5 C0.67 3.35 0.34 1.7 0 0 Z " fill="#F4AD00" transform="translate(250,83)"/>
<path d="M0 0 C0.33 0.99 0.66 1.98 1 3 C0.34 3.66 -0.32 4.32 -1 5 C-0.67 3.35 -0.34 1.7 0 0 Z " fill="#FFAD00" transform="translate(5,83)"/>
<path d="M0 0 C2.475 0.495 2.475 0.495 5 1 C4.01 1.33 3.02 1.66 2 2 C1.34 1.34 0.68 0.68 0 0 Z " fill="#FFAD00" transform="translate(168,4)"/>
<path d="M0 0 C0.99 0.33 1.98 0.66 3 1 C1.35 1.33 -0.3 1.66 -2 2 C-1.34 1.34 -0.68 0.68 0 0 Z " fill="#F4AD00" transform="translate(85,4)"/>
<path d="M0 0 C1.65 0 3.3 0 5 0 C5 0.33 5 0.66 5 1 C3.35 1 1.7 1 0 1 C0 0.67 0 0.34 0 0 Z " fill="#F2AE00" transform="translate(99,255)"/>
<path d="M0 0 C1.98 0.99 1.98 0.99 4 2 C2.68 1.67 1.36 1.34 0 1 C0 0.67 0 0.34 0 0 Z " fill="#FFDD00" transform="translate(74,246)"/>
<path d="M0 0 C0.33 0.99 0.66 1.98 1 3 C0.01 3.495 0.01 3.495 -1 4 C-0.67 2.68 -0.34 1.36 0 0 Z " fill="#FFDD00" transform="translate(247,178)"/>
<path d="M0 0 C0.33 0 0.66 0 1 0 C1 1.65 1 3.3 1 5 C0.67 5 0.34 5 0 5 C0 3.35 0 1.7 0 0 Z " fill="#F2AE00" transform="translate(255,152)"/>
<path d="M0 0 C0.33 0 0.66 0 1 0 C1 1.65 1 3.3 1 5 C0.67 5 0.34 5 0 5 C0 3.35 0 1.7 0 0 Z " fill="#F2AE00" transform="translate(0,99)"/>
<path d="M0 0 C0.33 0.66 0.66 1.32 1 2 C0.34 2.66 -0.32 3.32 -1 4 C-0.67 2.68 -0.34 1.36 0 0 Z " fill="#FFAA00" transform="translate(9,74)"/>
<path d="M0 0 C1.32 0.33 2.64 0.66 4 1 C3.01 1.495 3.01 1.495 2 2 C1.34 1.34 0.68 0.68 0 0 Z " fill="#FFDD00" transform="translate(178,8)"/>
<path d="M0 0 C1.65 0 3.3 0 5 0 C5 0.33 5 0.66 5 1 C3.35 1 1.7 1 0 1 C0 0.67 0 0.34 0 0 Z " fill="#F2AE00" transform="translate(152,0)"/>
<path d="M0 0 C4 1 4 1 4 1 Z " fill="#FFD900" transform="translate(153,255)"/>
<path d="M0 0 C0.66 0.33 1.32 0.66 2 1 C1.01 1 0.02 1 -1 1 C-0.67 0.67 -0.34 0.34 0 0 Z " fill="#E9D400" transform="translate(195,238)"/>
<path d="M0 0 C0.66 0.33 1.32 0.66 2 1 C1.01 1 0.02 1 -1 1 C-0.67 0.67 -0.34 0.34 0 0 Z " fill="#BFAF00" transform="translate(204,232)"/>
<path d="M0 0 C0.99 0.33 1.98 0.66 3 1 C2.01 1 1.02 1 0 1 C0 0.67 0 0.34 0 0 Z " fill="#BFAF00" transform="translate(50,232)"/>
<path d="M0 0 C0 3 0 3 0 3 Z " fill="#BFAF00" transform="translate(233,203)"/>
<path d="M0 0 C0.99 0.495 0.99 0.495 2 1 C1.67 1.66 1.34 2.32 1 3 C0.67 2.01 0.34 1.02 0 0 Z " fill="#BFAF00" transform="translate(22,203)"/>
<path d="M0 0 C0.99 0.495 0.99 0.495 2 1 C1.67 1.66 1.34 2.32 1 3 C0.67 2.01 0.34 1.02 0 0 Z " fill="#E9D400" transform="translate(16,194)"/>
<path d="M0 0 C1 4 1 4 1 4 Z " fill="#FFD900" transform="translate(0,153)"/>
<path d="M0 0 C1 4 1 4 1 4 Z " fill="#FFD900" transform="translate(255,99)"/>
<path d="M0 0 C0.99 0.495 0.99 0.495 2 1 C1.67 1.66 1.34 2.32 1 3 C0.67 2.01 0.34 1.02 0 0 Z " fill="#E9D400" transform="translate(238,59)"/>
<path d="M0 0 C0 3 0 3 0 3 Z " fill="#BFAF00" transform="translate(23,50)"/>
<path d="M0 0 C0.99 0.495 0.99 0.495 2 1 C1.67 1.66 1.34 2.32 1 3 C0.67 2.01 0.34 1.02 0 0 Z " fill="#BF8F00" transform="translate(232,50)"/>
<path d="M0 0 C0.99 0.33 1.98 0.66 3 1 C2.01 1 1.02 1 0 1 C0 0.67 0 0.34 0 0 Z " fill="#BFAF00" transform="translate(203,22)"/>
<path d="M0 0 C0.66 0.33 1.32 0.66 2 1 C1.01 1 0.02 1 -1 1 C-0.67 0.67 -0.34 0.34 0 0 Z " fill="#BFAF00" transform="translate(51,22)"/>
<path d="M0 0 C0.66 0.33 1.32 0.66 2 1 C1.01 1 0.02 1 -1 1 C-0.67 0.67 -0.34 0.34 0 0 Z " fill="#E9D400" transform="translate(60,16)"/>
<path d="M0 0 C4 1 4 1 4 1 Z " fill="#FFD900" transform="translate(99,0)"/>
<path d="M0 0 C3 1 3 1 3 1 Z " fill="#FFCD00" transform="translate(157,254)"/>
<path d="M0 0 C3 1 3 1 3 1 Z " fill="#FFCD00" transform="translate(96,254)"/>
<path d="M0 0 C3 1 3 1 3 1 Z " fill="#E9BF00" transform="translate(161,253)"/>
<path d="M0 0 C3 1 3 1 3 1 Z " fill="#E9BF00" transform="translate(92,253)"/>
<path d="M0 0 C3 1 3 1 3 1 Z " fill="#E9CD00" transform="translate(164,252)"/>
<path d="M0 0 C3 1 3 1 3 1 Z " fill="#E9CD00" transform="translate(89,252)"/>
<path d="M0 0 C3 1 3 1 3 1 Z " fill="#D4B800" transform="translate(173,249)"/>
<path d="M0 0 C3 1 3 1 3 1 Z " fill="#FFE200" transform="translate(80,249)"/>
<path d="M0 0 C3 1 3 1 3 1 Z " fill="#FFE200" transform="translate(178,247)"/>
<path d="" fill="#FFE200" transform="translate(0,0)"/>
<path d="" fill="#FFE200" transform="translate(0,0)"/>
<path d="" fill="#D4B800" transform="translate(0,0)"/>
<path d="" fill="#E9CD00" transform="translate(0,0)"/>
<path d="" fill="#E9CD00" transform="translate(0,0)"/>
<path d="" fill="#E9BF00" transform="translate(0,0)"/>
<path d="" fill="#E9BF00" transform="translate(0,0)"/>
<path d="" fill="#FFCD00" transform="translate(0,0)"/>
<path d="" fill="#FFCD00" transform="translate(0,0)"/>
<path d="" fill="#FFCD00" transform="translate(0,0)"/>
<path d="" fill="#FFCD00" transform="translate(0,0)"/>
<path d="" fill="#E9BF00" transform="translate(0,0)"/>
<path d="" fill="#E9BF00" transform="translate(0,0)"/>
<path d="" fill="#E9CD00" transform="translate(0,0)"/>
<path d="" fill="#E9CD00" transform="translate(0,0)"/>
<path d="" fill="#D4B800" transform="translate(0,0)"/>
<path d="" fill="#FFE200" transform="translate(0,0)"/>
<path d="" fill="#FFE200" transform="translate(0,0)"/>
<path d="M0 0 C3 1 3 1 3 1 Z " fill="#FFE200" transform="translate(75,8)"/>
<path d="M0 0 C3 1 3 1 3 1 Z " fill="#FFE200" transform="translate(173,6)"/>
<path d="M0 0 C3 1 3 1 3 1 Z " fill="#D4B800" transform="translate(80,6)"/>
<path d="M0 0 C3 1 3 1 3 1 Z " fill="#E9CD00" transform="translate(164,3)"/>
<path d="M0 0 C3 1 3 1 3 1 Z " fill="#E9CD00" transform="translate(89,3)"/>
<path d="M0 0 C3 1 3 1 3 1 Z " fill="#E9BF00" transform="translate(161,2)"/>
<path d="M0 0 C3 1 3 1 3 1 Z " fill="#E9BF00" transform="translate(92,2)"/>
<path d="M0 0 C3 1 3 1 3 1 Z " fill="#FFCD00" transform="translate(157,1)"/>
<path d="M0 0 C3 1 3 1 3 1 Z " fill="#FFCD00" transform="translate(96,1)"/>
<path d="M0 0 C2 1 2 1 2 1 Z " fill="#FFDF00" transform="translate(176,248)"/>
<path d="M0 0 C2 1 2 1 2 1 Z " fill="#FFDF00" transform="translate(78,248)"/>
<path d="M0 0 C2 1 2 1 2 1 Z " fill="#FF9500" transform="translate(183,245)"/>
<path d="M0 0 C2 1 2 1 2 1 Z " fill="#FFD400" transform="translate(71,245)"/>
<path d="M0 0 C2 1 2 1 2 1 Z " fill="#FFD400" transform="translate(187,243)"/>
<path d="M0 0 C2 1 2 1 2 1 Z " fill="#FFD400" transform="translate(67,243)"/>
<path d="M0 0 C2 1 2 1 2 1 Z " fill="#FFFF00" transform="translate(190,241)"/>
<path d="M0 0 C2 1 2 1 2 1 Z " fill="#FF9500" transform="translate(64,241)"/>
<path d="M0 0 C2 1 2 1 2 1 Z " fill="#FFD400" transform="translate(192,240)"/>
<path d="M0 0 C2 1 2 1 2 1 Z " fill="#FFFF00" transform="translate(62,240)"/>
<path d="M0 0 C2 1 2 1 2 1 Z " fill="#DFDF00" transform="translate(60,239)"/>
<path d="M0 0 C2 1 2 1 2 1 Z " fill="#FFD400" transform="translate(197,237)"/>
<path d="M0 0 C2 1 2 1 2 1 Z " fill="#BF9500" transform="translate(57,237)"/>
<path d="M0 0 C2 1 2 1 2 1 Z " fill="#FFD400" transform="translate(200,235)"/>
<path d="M0 0 C2 1 2 1 2 1 Z " fill="#DFDF00" transform="translate(54,235)"/>
<path d="M0 0 C2 1 2 1 2 1 Z " fill="#D4D400" transform="translate(208,229)"/>
<path d="M0 0 C2 1 2 1 2 1 Z " fill="#D4D400" transform="translate(46,229)"/>
<path d="" fill="#D4D400" transform="translate(0,0)"/>
<path d="" fill="#D4D400" transform="translate(0,0)"/>
<path d="" fill="#FFDF00" transform="translate(0,0)"/>
<path d="" fill="#FFD400" transform="translate(0,0)"/>
<path d="" fill="#FF9500" transform="translate(0,0)"/>
<path d="" fill="#FFD400" transform="translate(0,0)"/>
<path d="" fill="#DFDF00" transform="translate(0,0)"/>
<path d="" fill="#FFFF00" transform="translate(0,0)"/>
<path d="" fill="#FFD400" transform="translate(0,0)"/>
<path d="" fill="#FF9500" transform="translate(0,0)"/>
<path d="" fill="#FFFF00" transform="translate(0,0)"/>
<path d="" fill="#FFD400" transform="translate(0,0)"/>
<path d="" fill="#FFD400" transform="translate(0,0)"/>
<path d="" fill="#FFD400" transform="translate(0,0)"/>
<path d="" fill="#FF9500" transform="translate(0,0)"/>
<path d="" fill="#FFDF00" transform="translate(0,0)"/>
<path d="" fill="#FFDF00" transform="translate(0,0)"/>
<path d="" fill="#FFDF00" transform="translate(0,0)"/>
<path d="" fill="#FFDF00" transform="translate(0,0)"/>
<path d="" fill="#FF9500" transform="translate(0,0)"/>
<path d="" fill="#FFD400" transform="translate(0,0)"/>
<path d="" fill="#FFD400" transform="translate(0,0)"/>
<path d="" fill="#FFD400" transform="translate(0,0)"/>
<path d="" fill="#FFFF00" transform="translate(0,0)"/>
<path d="" fill="#FF9500" transform="translate(0,0)"/>
<path d="" fill="#FFD400" transform="translate(0,0)"/>
<path d="" fill="#FFFF00" transform="translate(0,0)"/>
<path d="" fill="#DFDF00" transform="translate(0,0)"/>
<path d="" fill="#FFD400" transform="translate(0,0)"/>
<path d="" fill="#FF9500" transform="translate(0,0)"/>
<path d="" fill="#FFD400" transform="translate(0,0)"/>
<path d="" fill="#FFDF00" transform="translate(0,0)"/>
<path d="" fill="#D4D400" transform="translate(0,0)"/>
<path d="" fill="#D4D400" transform="translate(0,0)"/>
<path d="M0 0 C2 1 2 1 2 1 Z " fill="#D4D400" transform="translate(208,26)"/>
<path d="M0 0 C2 1 2 1 2 1 Z " fill="#D4D400" transform="translate(46,26)"/>
<path d="M0 0 C2 1 2 1 2 1 Z " fill="#FFDF00" transform="translate(200,20)"/>
<path d="M0 0 C2 1 2 1 2 1 Z " fill="#FFD400" transform="translate(54,20)"/>
<path d="M0 0 C2 1 2 1 2 1 Z " fill="#FF9500" transform="translate(197,18)"/>
<path d="M0 0 C2 1 2 1 2 1 Z " fill="#FFD400" transform="translate(57,18)"/>
<path d="M0 0 C2 1 2 1 2 1 Z " fill="#DFDF00" transform="translate(194,16)"/>
<path d="M0 0 C2 1 2 1 2 1 Z " fill="#FFFF00" transform="translate(192,15)"/>
<path d="M0 0 C2 1 2 1 2 1 Z " fill="#FFD400" transform="translate(62,15)"/>
<path d="M0 0 C2 1 2 1 2 1 Z " fill="#FF9500" transform="translate(190,14)"/>
<path d="M0 0 C2 1 2 1 2 1 Z " fill="#FFFF00" transform="translate(64,14)"/>
<path d="M0 0 C2 1 2 1 2 1 Z " fill="#FFD400" transform="translate(187,12)"/>
<path d="M0 0 C2 1 2 1 2 1 Z " fill="#FFD400" transform="translate(67,12)"/>
<path d="M0 0 C2 1 2 1 2 1 Z " fill="#FFD400" transform="translate(183,10)"/>
<path d="M0 0 C2 1 2 1 2 1 Z " fill="#FF9500" transform="translate(71,10)"/>
<path d="M0 0 C2 1 2 1 2 1 Z " fill="#FFDF00" transform="translate(176,7)"/>
<path d="M0 0 C2 1 2 1 2 1 Z " fill="#FFDF00" transform="translate(78,7)"/>
<path d="" fill="#FFAA00" transform="translate(0,0)"/>
<path d="" fill="#FFBF00" transform="translate(0,0)"/>
<path d="" fill="#BFBF00" transform="translate(0,0)"/>
<path d="" fill="#FFAA00" transform="translate(0,0)"/>
<path d="" fill="#BFBF00" transform="translate(0,0)"/>
<path d="" fill="#FFFF00" transform="translate(0,0)"/>
<path d="" fill="#FFAA00" transform="translate(0,0)"/>
<path d="" fill="#FFAA00" transform="translate(0,0)"/>
<path d="" fill="#AAAA00" transform="translate(0,0)"/>
<path d="" fill="#FFAA00" transform="translate(0,0)"/>
<path d="" fill="#FFAA00" transform="translate(0,0)"/>
<path d="" fill="#FFAA00" transform="translate(0,0)"/>
<path d="" fill="#FFBF00" transform="translate(0,0)"/>
<path d="" fill="#FFBF00" transform="translate(0,0)"/>
<path d="" fill="#FF8000" transform="translate(0,0)"/>
<path d="" fill="#FF8000" transform="translate(0,0)"/>
<path d="" fill="#FFAA00" transform="translate(0,0)"/>
<path d="" fill="#FFAA00" transform="translate(0,0)"/>
<path d="" fill="#FFAA00" transform="translate(0,0)"/>
<path d="" fill="#BFBF00" transform="translate(0,0)"/>
<path d="" fill="#FFBF00" transform="translate(0,0)"/>
<path d="" fill="#FFBF00" transform="translate(0,0)"/>
<path d="" fill="#FFBF00" transform="translate(0,0)"/>
<path d="" fill="#FFBF00" transform="translate(0,0)"/>
<path d="" fill="#FFBF00" transform="translate(0,0)"/>
<path d="" fill="#FFBF00" transform="translate(0,0)"/>
<path d="" fill="#FFBF00" transform="translate(0,0)"/>
<path d="" fill="#FFBF00" transform="translate(0,0)"/>
<path d="" fill="#BFBF00" transform="translate(0,0)"/>
<path d="" fill="#FFAA00" transform="translate(0,0)"/>
<path d="" fill="#FFAA00" transform="translate(0,0)"/>
<path d="" fill="#FFAA00" transform="translate(0,0)"/>
<path d="" fill="#FF8000" transform="translate(0,0)"/>
<path d="" fill="#FF8000" transform="translate(0,0)"/>
<path d="" fill="#FFBF00" transform="translate(0,0)"/>
<path d="" fill="#FFBF00" transform="translate(0,0)"/>
<path d="" fill="#FFAA00" transform="translate(0,0)"/>
<path d="" fill="#FFAA00" transform="translate(0,0)"/>
<path d="" fill="#FFAA00" transform="translate(0,0)"/>
<path d="" fill="#AAAA00" transform="translate(0,0)"/>
<path d="" fill="#FFAA00" transform="translate(0,0)"/>
<path d="" fill="#FFAA00" transform="translate(0,0)"/>
<path d="" fill="#FFFF00" transform="translate(0,0)"/>
<path d="" fill="#BFBF00" transform="translate(0,0)"/>
<path d="" fill="#FFAA00" transform="translate(0,0)"/>
<path d="" fill="#BFBF00" transform="translate(0,0)"/>
<path d="" fill="#FFBF00" transform="translate(0,0)"/>
<path d="" fill="#FFAA00" transform="translate(0,0)"/>
<path d="" fill="#FFAA00" transform="translate(0,0)"/>
<path d="" fill="#FFBF00" transform="translate(0,0)"/>
<path d="" fill="#BFBF00" transform="translate(0,0)"/>
<path d="" fill="#FFAA00" transform="translate(0,0)"/>
<path d="" fill="#BFBF00" transform="translate(0,0)"/>
<path d="" fill="#FFFF00" transform="translate(0,0)"/>
<path d="" fill="#FFAA00" transform="translate(0,0)"/>
<path d="" fill="#FFAA00" transform="translate(0,0)"/>
<path d="" fill="#AAAA00" transform="translate(0,0)"/>
<path d="" fill="#FFAA00" transform="translate(0,0)"/>
<path d="" fill="#FFAA00" transform="translate(0,0)"/>
<path d="" fill="#FFAA00" transform="translate(0,0)"/>
<path d="" fill="#FFBF00" transform="translate(0,0)"/>
<path d="" fill="#FFBF00" transform="translate(0,0)"/>
<path d="" fill="#FF8000" transform="translate(0,0)"/>
<path d="" fill="#FF8000" transform="translate(0,0)"/>
<path d="" fill="#FFAA00" transform="translate(0,0)"/>
<path d="" fill="#FFAA00" transform="translate(0,0)"/>
<path d="" fill="#FFAA00" transform="translate(0,0)"/>
<path d="" fill="#BFBF00" transform="translate(0,0)"/>
<path d="" fill="#FFBF00" transform="translate(0,0)"/>
<path d="" fill="#FFBF00" transform="translate(0,0)"/>
<path d="" fill="#FFBF00" transform="translate(0,0)"/>
<path d="" fill="#FFBF00" transform="translate(0,0)"/>
<path d="" fill="#FFBF00" transform="translate(0,0)"/>
<path d="" fill="#FFBF00" transform="translate(0,0)"/>
<path d="" fill="#FFBF00" transform="translate(0,0)"/>
<path d="" fill="#FFBF00" transform="translate(0,0)"/>
<path d="" fill="#BFBF00" transform="translate(0,0)"/>
<path d="" fill="#FFAA00" transform="translate(0,0)"/>
<path d="" fill="#FFAA00" transform="translate(0,0)"/>
<path d="" fill="#FFAA00" transform="translate(0,0)"/>
<path d="" fill="#FF8000" transform="translate(0,0)"/>
<path d="" fill="#FF8000" transform="translate(0,0)"/>
<path d="" fill="#FFBF00" transform="translate(0,0)"/>
<path d="" fill="#FFBF00" transform="translate(0,0)"/>
<path d="" fill="#FFAA00" transform="translate(0,0)"/>
<path d="" fill="#FFAA00" transform="translate(0,0)"/>
<path d="" fill="#FFAA00" transform="translate(0,0)"/>
<path d="" fill="#AAAA00" transform="translate(0,0)"/>
<path d="" fill="#FFAA00" transform="translate(0,0)"/>
<path d="" fill="#FFAA00" transform="translate(0,0)"/>
<path d="" fill="#FFFF00" transform="translate(0,0)"/>
<path d="" fill="#BFBF00" transform="translate(0,0)"/>
<path d="" fill="#FFAA00" transform="translate(0,0)"/>
<path d="" fill="#BFBF00" transform="translate(0,0)"/>
<path d="" fill="#FFBF00" transform="translate(0,0)"/>
<path d="" fill="#FFAA00" transform="translate(0,0)"/>
</svg>
