<?xml version="1.0" encoding="UTF-8"?>
<!DOCTYPE svg PUBLIC "-//W3C//DTD SVG 1.1//EN" "http://www.w3.org/Graphics/SVG/1.1/DTD/svg11.dtd">
<svg xmlns="http://www.w3.org/2000/svg" version="1.1" width="300px" height="300px" style="shape-rendering:geometricPrecision; text-rendering:geometricPrecision; image-rendering:optimizeQuality; fill-rule:evenodd; clip-rule:evenodd" xmlns:xlink="http://www.w3.org/1999/xlink">
<g><path style="opacity:0.998" fill="#efb810" d="M 253.5,-0.5 C 259.5,-0.5 265.5,-0.5 271.5,-0.5C 285.008,3.67454 294.341,12.3412 299.5,25.5C 299.5,33.5 299.5,41.5 299.5,49.5C 295.677,59.9928 288.677,67.6595 278.5,72.5C 278.167,72.5 277.833,72.5 277.5,72.5C 255.786,79.6521 239.286,73.3187 228,53.5C 223.178,42.046 223.344,30.7127 228.5,19.5C 234.375,9.73282 242.709,3.06615 253.5,-0.5 Z"/></g>
<g><path style="opacity:0.009" fill="#44aa8c" d="M 182.5,2.5 C 183.786,0.632495 185.119,0.465829 186.5,2C 185.207,2.49001 183.873,2.65668 182.5,2.5 Z"/></g>
<g><path style="opacity:0.004" fill="#28a07b" d="M 108.5,1.5 C 109.833,2.16667 109.833,2.16667 108.5,1.5 Z"/></g>
<g><path style="opacity:0.996" fill="#269f7b" d="M 182.5,2.5 C 187.932,4.61213 193.598,6.2788 199.5,7.5C 200.209,8.40397 201.209,8.73731 202.5,8.5C 210.591,11.8206 218.424,15.8206 226,20.5C 226.671,19.7476 227.504,19.4142 228.5,19.5C 223.344,30.7127 223.178,42.046 228,53.5C 239.286,73.3187 255.786,79.6521 277.5,72.5C 280.707,80.5848 284.207,88.5848 288,96.5C 296.131,118.471 299.131,141.137 297,164.5C 295.126,172.368 293.96,180.368 293.5,188.5C 292.455,190.205 291.122,191.705 289.5,193C 290.022,193.561 290.355,194.228 290.5,195C 287.574,201.235 285.407,207.735 284,214.5C 276.568,224.37 269.902,234.703 264,245.5C 262.649,247.019 261.149,248.352 259.5,249.5C 259.624,250.107 259.957,250.44 260.5,250.5C 260.833,251.833 261.167,251.833 261.5,250.5C 261.833,250.5 262.167,250.5 262.5,250.5C 261.167,252.833 259.833,255.167 258.5,257.5C 256.989,258.502 255.322,259.169 253.5,259.5C 253.167,258.167 252.833,258.167 252.5,259.5C 252.167,259.5 251.833,259.5 251.5,259.5C 251.103,258.475 250.437,258.308 249.5,259C 225.706,281.05 197.372,293.716 164.5,297C 154.5,297.333 144.5,297.667 134.5,298C 137.036,298.186 139.369,298.686 141.5,299.5C 138.5,299.5 135.5,299.5 132.5,299.5C 132.167,298.167 131.833,298.167 131.5,299.5C 131.167,299.5 130.833,299.5 130.5,299.5C 129.081,298.549 127.415,298.216 125.5,298.5C 125.5,298.167 125.5,297.833 125.5,297.5C 128.187,297.664 130.854,297.497 133.5,297C 83.3159,289.776 45.1492,264.61 19,221.5C 19.1693,216.479 17.336,212.479 13.5,209.5C 12.6207,205.846 11.7873,202.179 11,198.5C 10.2904,197.027 9.12377,196.36 7.5,196.5C 3.39539,181.122 1.72872,165.456 2.5,149.5C 2.66667,142.167 2.83333,134.833 3,127.5C 9.47298,92.0299 25.6397,62.1966 51.5,38C 52.5,37.6667 53.5,37.3333 54.5,37C 59.7717,30.9178 65.7717,25.7511 72.5,21.5C 82.851,18.4349 92.6844,14.1015 102,8.5C 109.065,6.27543 116.232,4.4421 123.5,3C 122.906,2.53566 122.239,2.36899 121.5,2.5C 130.782,0.961561 140.282,0.294894 150,0.5C 158.768,0.927728 167.435,0.927728 176,0.5C 177.789,2.22901 179.956,2.89567 182.5,2.5 Z"/></g>
<g><path style="opacity:0.004" fill="#279c78" d="M 98.5,2.5 C 99.8333,3.16667 99.8333,3.16667 98.5,2.5 Z"/></g>
<g><path style="opacity:0.004" fill="#279a76" d="M 95.5,3.5 C 96.8333,4.16667 96.8333,4.16667 95.5,3.5 Z"/></g>
<g><path style="opacity:0.004" fill="#279d78" d="M 98.5,3.5 C 97.8333,4.16667 97.8333,4.16667 98.5,3.5 Z"/></g>
<g><path style="opacity:0.004" fill="#289f7a" d="M 202.5,5.5 C 203.833,6.16667 203.833,6.16667 202.5,5.5 Z"/></g>
<g><path style="opacity:0.012" fill="#3da083" d="M 199.5,7.5 C 199.897,6.47498 200.563,6.30831 201.5,7C 200.906,7.46434 200.239,7.63101 199.5,7.5 Z"/></g>
<g><path style="opacity:0.012" fill="#3a9d7f" d="M 202.5,8.5 C 202.897,7.47498 203.563,7.30831 204.5,8C 203.906,8.46434 203.239,8.63101 202.5,8.5 Z"/></g>
<g><path style="opacity:0.004" fill="#42a588" d="M 205.5,9.5 C 205.897,8.47498 206.563,8.30831 207.5,9C 206.906,9.46434 206.239,9.63101 205.5,9.5 Z"/></g>
<g><path style="opacity:0.004" fill="#40a084" d="M 121.5,2.5 C 122.239,2.36899 122.906,2.53566 123.5,3C 116.232,4.4421 109.065,6.27543 102,8.5C 92.6844,14.1015 82.851,18.4349 72.5,21.5C 73.9842,19.9263 75.6508,18.593 77.5,17.5C 78.4916,17.6716 79.1583,17.3382 79.5,16.5C 81.0269,16.573 82.0269,15.9063 82.5,14.5C 83.5,14.5 84.5,14.5 85.5,14.5C 85.3802,11.7952 86.3802,11.1285 88.5,12.5C 89.5,12 90.5,11.5 91.5,11C 90.0439,10.5774 89.5439,9.74409 90,8.5C 91.5827,8.49296 93.2494,8.8263 95,9.5C 95.3542,7.1925 96.3542,6.85917 98,8.5C 99.5,8 101,7.5 102.5,7C 101.5,6.66667 100.5,6.33333 99.5,6C 102.109,4.40043 104.776,4.23376 107.5,5.5C 112.065,3.98705 116.732,2.98705 121.5,2.5 Z"/></g>
<g><path style="opacity:0.004" fill="#289f7a" d="M 215.5,10.5 C 216.833,11.1667 216.833,11.1667 215.5,10.5 Z"/></g>
<g><path style="opacity:0.004" fill="#289e79" d="M 220.5,12.5 C 219.833,11.1667 219.833,11.1667 220.5,12.5 Z"/></g>
<g><path style="opacity:0.012" fill="#46a98c" d="M 82.5,13.5 C 82.8966,12.475 83.5632,12.3083 84.5,13C 83.9056,13.4643 83.2389,13.631 82.5,13.5 Z"/></g>
<g><path style="opacity:0.004" fill="#299e7a" d="M 220.5,12.5 C 221.833,13.1667 221.833,13.1667 220.5,12.5 Z"/></g>
<g><path style="opacity:1" fill="#fefbf3" d="M 261.5,12.5 C 266.272,14.7204 270.938,17.2204 275.5,20C 273.99,20.8498 272.49,21.6831 271,22.5C 268.07,21.2842 265.237,19.9509 262.5,18.5C 259.56,19.6068 256.727,20.9401 254,22.5C 252.775,22.1377 251.609,21.6377 250.5,21C 249.167,20.3333 249.167,19.6667 250.5,19C 254.23,16.807 257.897,14.6404 261.5,12.5 Z"/></g>
<g><path style="opacity:0.012" fill="#44a285" d="M 82.5,13.5 C 82.5,13.8333 82.5,14.1667 82.5,14.5C 81.8299,14.0187 81.8299,13.6853 82.5,13.5 Z"/></g>
<g><path style="opacity:0.012" fill="#40a285" d="M 79.5,14.5 C 80.8333,15.1667 80.8333,15.1667 79.5,14.5 Z"/></g>
<g><path style="opacity:0.008" fill="#42a286" d="M 79.5,15.5 C 79.5,15.8333 79.5,16.1667 79.5,16.5C 78.5084,16.3284 77.8417,16.6618 77.5,17.5C 76.7611,17.631 76.0944,17.4643 75.5,17C 76.5634,15.8118 77.8967,15.3118 79.5,15.5 Z"/></g>
<g><path style="opacity:0.004" fill="#329e7c" d="M 63.5,20.5 C 64.8333,21.1667 64.8333,21.1667 63.5,20.5 Z"/></g>
<g><path style="opacity:1" fill="#fefbf3" d="M 243.5,22.5 C 246.022,22.1281 248.022,22.9614 249.5,25C 246.104,26.71 244.604,29.5433 245,33.5C 239.712,30.4453 239.212,26.7786 243.5,22.5 Z"/></g>
<g><path style="opacity:1" fill="#fefbf3" d="M 260.5,22.5 C 266.856,23.0735 267.523,24.7402 262.5,27.5C 260.833,26.6667 259.167,25.8333 257.5,25C 258.942,24.6232 259.942,23.7899 260.5,22.5 Z"/></g>
<g><path style="opacity:1" fill="#fef9ed" d="M 277.5,22.5 C 283.173,22.4031 285.339,25.0697 284,30.5C 282.488,31.2567 281.154,32.2567 280,33.5C 280.167,29.2882 278.333,26.4549 274.5,25C 275.571,24.1482 276.571,23.3149 277.5,22.5 Z"/></g>
<g><path style="opacity:1" fill="#fefdf9" d="M 252.5,27.5 C 255.953,28.1427 259.119,29.4761 262,31.5C 265,30.1667 268,28.8333 271,27.5C 275.206,28.5932 276.539,31.2598 275,35.5C 272.667,37.1667 270.333,38.8333 268,40.5C 267.793,44.0894 267.293,47.5894 266.5,51C 263.54,53.0522 260.707,52.8855 258,50.5C 259.393,43.5159 256.893,38.8493 250.5,36.5C 248.782,32.7718 249.448,29.7718 252.5,27.5 Z"/></g>
<g><path style="opacity:0.004" fill="#369a7b" d="M 40.5,33.5 C 41.8333,34.1667 41.8333,34.1667 40.5,33.5 Z"/></g>
<g><path style="opacity:1" fill="#fefaee" d="M 282.5,35.5 C 283.809,37.5706 284.475,40.0706 284.5,43C 284.167,45.5 283.833,48 283.5,50.5C 279.5,52.8333 275.5,55.1667 271.5,57.5C 270.369,55.9255 270.202,54.2588 271,52.5C 273.498,50.583 276.165,48.9164 279,47.5C 279.333,44.1667 279.667,40.8333 280,37.5C 280.995,36.9341 281.828,36.2674 282.5,35.5 Z"/></g>
<g><path style="opacity:1" fill="#fefbf6" d="M 240.5,35.5 C 242.17,35.7512 243.67,36.4178 245,37.5C 243.607,44.4841 246.107,49.1507 252.5,51.5C 253.641,53.4213 253.808,55.4213 253,57.5C 248.836,55.419 244.836,53.0857 241,50.5C 240.501,45.5111 240.334,40.5111 240.5,35.5 Z"/></g>
<g><path style="opacity:0.004" fill="#40a888" d="M 43.5,37.5 C 44.8333,38.1667 44.8333,38.1667 43.5,37.5 Z"/></g>
<g><path style="opacity:1" fill="#fefcf7" d="M 249.5,40.5 C 253.317,41.5335 254.317,43.8668 252.5,47.5C 249.907,45.9292 248.907,43.5959 249.5,40.5 Z"/></g>
<g><path style="opacity:1" fill="#fef9ef" d="M 273.5,40.5 C 276.416,43.5441 275.749,45.8775 271.5,47.5C 269.911,44.4116 270.578,42.0783 273.5,40.5 Z"/></g>
<g><path style="opacity:0.004" fill="#3fa887" d="M 36.5,44.5 C 37.8333,45.1667 37.8333,45.1667 36.5,44.5 Z"/></g>
<g><path style="opacity:0.004" fill="#3aa684" d="M 30.5,51.5 C 31.8333,52.1667 31.8333,52.1667 30.5,51.5 Z"/></g>
<g><path style="opacity:0.004" fill="#35a482" d="M 27.5,55.5 C 28.8333,56.1667 28.8333,56.1667 27.5,55.5 Z"/></g>
<g><path style="opacity:1" fill="#fefaf0" d="M 257.5,54.5 C 258.973,55.7401 260.64,56.7401 262.5,57.5C 266.842,53.3485 268.175,54.3485 266.5,60.5C 260.082,63.7863 257.082,61.7863 257.5,54.5 Z"/></g>
<g><path style="opacity:0.004" fill="#289a76" d="M 16.5,68.5 C 17.8333,69.1667 17.8333,69.1667 16.5,68.5 Z"/></g>
<g><path style="opacity:0.004" fill="#2ba17c" d="M 19.5,70.5 C 18.8333,69.1667 18.8333,69.1667 19.5,70.5 Z"/></g>
<g><path style="opacity:0.996" fill="#cff9ec" d="M 77.5,73.5 C 124.5,73.5 171.5,73.5 218.5,73.5C 218.5,85.8333 218.5,98.1667 218.5,110.5C 201.5,110.5 184.5,110.5 167.5,110.5C 183.992,109.503 200.658,109.17 217.5,109.5C 217.5,97.8333 217.5,86.1667 217.5,74.5C 171.167,74.5 124.833,74.5 78.5,74.5C 78.5,86.1667 78.5,97.8333 78.5,109.5C 95.3417,109.17 112.008,109.503 128.5,110.5C 111.5,110.5 94.5,110.5 77.5,110.5C 77.5,98.1667 77.5,85.8333 77.5,73.5 Z"/></g>
<g><path style="opacity:0.996" fill="#fdfefe" d="M 167.5,110.5 C 167.5,117.833 167.5,125.167 167.5,132.5C 168.935,133.985 168.768,135.318 167,136.5C 166.5,143.826 166.334,151.159 166.5,158.5C 154.586,158.821 142.753,158.488 131,157.5C 130.667,150.5 130.333,143.5 130,136.5C 127.519,135.851 127.186,134.851 129,133.5C 129.822,125.655 129.656,117.989 128.5,110.5C 112.008,109.503 95.3417,109.17 78.5,109.5C 78.5,97.8333 78.5,86.1667 78.5,74.5C 124.833,74.5 171.167,74.5 217.5,74.5C 217.5,86.1667 217.5,97.8333 217.5,109.5C 200.658,109.17 183.992,109.503 167.5,110.5 Z"/></g>
<g><path style="opacity:0.004" fill="#289f7a" d="M 284.5,75.5 C 285.833,76.1667 285.833,76.1667 284.5,75.5 Z"/></g>
<g><path style="opacity:0.004" fill="#31a782" d="M 287.5,83.5 C 288.833,84.1667 288.833,84.1667 287.5,83.5 Z"/></g>
<g><path style="opacity:0.004" fill="#299f7a" d="M 290.5,86.5 C 291.833,87.1667 291.833,87.1667 290.5,86.5 Z"/></g>
<g><path style="opacity:0.012" fill="#34977a" d="M 288.5,89.5 C 289.833,90.1667 289.833,90.1667 288.5,89.5 Z"/></g>
<g><path style="opacity:0.035" fill="#3c9c80" d="M 72.5,21.5 C 65.7717,25.7511 59.7717,30.9178 54.5,37C 53.5,37.3333 52.5,37.6667 51.5,38C 25.6397,62.1966 9.47298,92.0299 3,127.5C 2.83333,134.833 2.66667,142.167 2.5,149.5C 1.72872,165.456 3.39539,181.122 7.5,196.5C 9.12377,196.36 10.2904,197.027 11,198.5C 11.7873,202.179 12.6207,205.846 13.5,209.5C 17.336,212.479 19.1693,216.479 19,221.5C 45.1492,264.61 83.3159,289.776 133.5,297C 130.854,297.497 128.187,297.664 125.5,297.5C 121.5,297.833 121.5,298.167 125.5,298.5C 125.5,298.833 125.5,299.167 125.5,299.5C 123.5,299.5 121.5,299.5 119.5,299.5C 119.918,298.778 120.584,298.278 121.5,298C 119.655,296.872 117.655,296.372 115.5,296.5C 114.081,295.549 112.415,295.216 110.5,295.5C 109.791,294.596 108.791,294.263 107.5,294.5C 106.791,293.596 105.791,293.263 104.5,293.5C 103.228,292.566 101.728,291.899 100,291.5C 98.5349,292.33 97.0349,292.496 95.5,292C 96.1667,291.667 96.8333,291.333 97.5,291C 96.255,290.209 94.9217,289.709 93.5,289.5C 87.4819,285.81 81.1486,283.31 74.5,282C 75.1667,281.667 75.8333,281.333 76.5,281C 75.255,280.209 73.9217,279.709 72.5,279.5C 68.5146,276.363 64.3479,273.363 60,270.5C 57.1225,270.869 54.9558,269.535 53.5,266.5C 54.8333,266.167 54.8333,265.833 53.5,265.5C 53.5,264.833 53.1667,264.5 52.5,264.5C 46.8953,259.397 41.3953,254.064 36,248.5C 34.8525,249.458 33.8525,249.125 33,247.5C 31.6924,245.359 30.1924,243.359 28.5,241.5C 28.7093,240.914 29.0426,240.414 29.5,240C 28.4479,238.881 27.2812,238.381 26,238.5C 25.3828,237.551 25.5494,236.718 26.5,236C 25.4479,234.881 24.2812,234.381 23,234.5C 20.8882,231.273 19.0549,227.94 17.5,224.5C 18.8333,223.833 18.8333,223.167 17.5,222.5C 17.6716,221.508 17.3382,220.842 16.5,220.5C 16.3404,218.847 15.6737,217.514 14.5,216.5C 14.6716,215.508 14.3382,214.842 13.5,214.5C 13.1667,211.833 12.8333,211.833 12.5,214.5C 11.3263,213.486 10.6596,212.153 10.5,210.5C 11.8333,209.833 11.8333,209.167 10.5,208.5C 10.5979,206.447 9.93127,204.78 8.5,203.5C 8.16667,202.167 7.83333,202.167 7.5,203.5C 6.59603,202.791 6.26269,201.791 6.5,200.5C 7.83333,199.5 7.83333,198.5 6.5,197.5C 6.16667,194.833 5.83333,194.833 5.5,197.5C 4.59603,196.791 4.26269,195.791 4.5,194.5C 5.83333,193.5 5.83333,192.5 4.5,191.5C 4.16667,188.833 3.83333,188.833 3.5,191.5C 1.89839,187.761 0.898395,183.761 0.5,179.5C 1.83333,177.5 1.83333,175.5 0.5,173.5C 0.8064,170.615 0.473067,167.948 -0.5,165.5C -0.5,165.167 -0.5,164.833 -0.5,164.5C 0.833333,164.167 0.833333,163.833 -0.5,163.5C -0.5,154.833 -0.5,146.167 -0.5,137.5C 0.481638,134.038 0.814971,130.371 0.5,126.5C 1.90341,123.091 2.57007,119.425 2.5,115.5C 5.60125,108.428 7.43458,101.095 8,93.5C 8.66667,90.8333 9.33333,90.8333 10,93.5C 10.8333,91.8333 11.6667,90.1667 12.5,88.5C 11.5721,87.2322 11.4054,85.8989 12,84.5C 13.2954,80.0146 15.6288,77.0146 19,75.5C 18.4742,73.7725 18.6409,72.1059 19.5,70.5C 22.1433,66.5654 24.81,62.5654 27.5,58.5C 28.989,58.4669 30.3224,57.9669 31.5,57C 30.5494,56.2825 30.3828,55.4491 31,54.5C 33.4684,54.1309 35.635,52.6309 37.5,50C 36.5494,49.2825 36.3828,48.4491 37,47.5C 40.5,44 44,40.5 47.5,37C 49.9849,37.6228 51.9849,36.6228 53.5,34C 52.1667,33 52.1667,32 53.5,31C 54.7839,30.3162 55.9505,30.4829 57,31.5C 61.7982,27.5223 66.9649,24.189 72.5,21.5 Z"/></g>
<g><path style="opacity:0.004" fill="#28a27c" d="M 294.5,100.5 C 295.833,101.167 295.833,101.167 294.5,100.5 Z"/></g>
<g><path style="opacity:0.008" fill="#31987a" d="M 293.5,101.5 C 293.833,101.5 294.167,101.5 294.5,101.5C 295.833,102.5 295.833,103.5 294.5,104.5C 294.167,104.5 293.833,104.5 293.5,104.5C 293.5,103.5 293.5,102.5 293.5,101.5 Z"/></g>
<g><path style="opacity:0.004" fill="#279976" d="M 0.5,103.5 C 1.83333,104.167 1.83333,104.167 0.5,103.5 Z"/></g>
<g><path style="opacity:0.004" fill="#279d78" d="M -0.5,106.5 C 0.833333,107.167 0.833333,107.167 -0.5,106.5 Z"/></g>
<g><path style="opacity:0.052" fill="#34997b" d="M 277.5,72.5 C 277.833,72.5 278.167,72.5 278.5,72.5C 279.281,74.3223 280.448,74.9889 282,74.5C 284.129,77.7672 285.962,81.1005 287.5,84.5C 288.038,86.1172 288.371,87.7839 288.5,89.5C 287.167,89.8333 287.167,90.1667 288.5,90.5C 288.491,92.3084 288.991,93.9751 290,95.5C 290.333,94.8333 290.667,94.1667 291,93.5C 292.136,96.0964 292.969,98.763 293.5,101.5C 292.167,102.5 292.167,103.5 293.5,104.5C 293.833,108.5 294.167,108.5 294.5,104.5C 294.64,110.448 295.807,116.448 298,122.5C 298.278,121.584 298.778,120.918 299.5,120.5C 299.5,122.167 299.5,123.833 299.5,125.5C 298.167,128.5 298.167,131.5 299.5,134.5C 299.5,144.833 299.5,155.167 299.5,165.5C 298.523,168.287 298.19,171.287 298.5,174.5C 297.167,176.167 297.167,177.833 298.5,179.5C 298.5,180.167 298.833,180.5 299.5,180.5C 299.5,180.833 299.5,181.167 299.5,181.5C 298.833,182.5 298.167,183.5 297.5,184.5C 297.167,179.167 296.833,179.167 296.5,184.5C 295.566,185.568 295.232,186.901 295.5,188.5C 294.596,189.209 294.263,190.209 294.5,191.5C 293.566,192.568 293.232,193.901 293.5,195.5C 292.596,196.209 292.263,197.209 292.5,198.5C 291.167,199.167 291.167,199.833 292.5,200.5C 292.737,201.791 292.404,202.791 291.5,203.5C 291.167,200.833 290.833,200.833 290.5,203.5C 289.596,204.209 289.263,205.209 289.5,206.5C 288.662,206.842 288.328,207.508 288.5,208.5C 287.167,209.167 287.167,209.833 288.5,210.5C 288.371,212.216 288.038,213.883 287.5,215.5C 284.082,221.337 280.416,227.004 276.5,232.5C 276.167,231.167 275.833,231.167 275.5,232.5C 274.662,232.842 274.328,233.508 274.5,234.5C 273.167,234.833 273.167,235.167 274.5,235.5C 274.573,237.027 273.906,238.027 272.5,238.5C 272.167,237.167 271.833,237.167 271.5,238.5C 270.167,238.833 270.167,239.167 271.5,239.5C 271.573,241.027 270.906,242.027 269.5,242.5C 269.167,241.167 268.833,241.167 268.5,242.5C 267.167,242.833 267.167,243.167 268.5,243.5C 267.864,245.795 266.531,247.461 264.5,248.5C 264.167,247.167 263.833,247.167 263.5,248.5C 262.833,248.5 262.5,248.833 262.5,249.5C 261.833,249.5 261.5,249.833 261.5,250.5C 261.167,250.5 260.833,250.5 260.5,250.5C 259.957,250.44 259.624,250.107 259.5,249.5C 261.149,248.352 262.649,247.019 264,245.5C 269.902,234.703 276.568,224.37 284,214.5C 285.407,207.735 287.574,201.235 290.5,195C 290.355,194.228 290.022,193.561 289.5,193C 291.122,191.705 292.455,190.205 293.5,188.5C 293.96,180.368 295.126,172.368 297,164.5C 299.131,141.137 296.131,118.471 288,96.5C 284.207,88.5848 280.707,80.5848 277.5,72.5 Z"/></g>
<g><path style="opacity:0.012" fill="#42b090" d="M 2.5,115.5 C 1.42654,114.749 1.25988,113.749 2,112.5C 2.48278,113.448 2.64945,114.448 2.5,115.5 Z"/></g>
<g><path style="opacity:0.996" fill="#42977d" d="M 234.5,144.5 C 213.043,136.089 190.71,132.089 167.5,132.5C 167.5,125.167 167.5,117.833 167.5,110.5C 184.5,110.5 201.5,110.5 218.5,110.5C 218.5,98.1667 218.5,85.8333 218.5,73.5C 171.5,73.5 124.5,73.5 77.5,73.5C 100.657,72.1669 124.157,71.5002 148,71.5C 171.5,71.6667 195,71.8333 218.5,72C 219,72.5 219.5,73 220,73.5C 220.821,86.0756 220.655,98.5756 219.5,111C 202.837,111.5 186.17,111.667 169.5,111.5C 169.5,117.833 169.5,124.167 169.5,130.5C 187.19,131.399 204.69,133.732 222,137.5C 225.407,139.118 228.907,140.618 232.5,142C 233.381,142.708 234.047,143.542 234.5,144.5 Z"/></g>
<g><path style="opacity:0.008" fill="#3ea083" d="M -0.5,121.5 C 0.451145,122.919 0.784479,124.585 0.5,126.5C 0.166667,126.5 -0.166667,126.5 -0.5,126.5C -0.5,124.833 -0.5,123.167 -0.5,121.5 Z"/></g>
<g><path style="opacity:0.996" fill="#3d977c" d="M 77.5,110.5 C 94.5,110.5 111.5,110.5 128.5,110.5C 128.5,117.833 128.5,125.167 128.5,132.5C 111.279,132.822 94.279,134.822 77.5,138.5C 80.7662,136.421 84.4328,135.087 88.5,134.5C 101.107,132.445 113.774,131.112 126.5,130.5C 126.5,124.167 126.5,117.833 126.5,111.5C 109.991,111.83 93.6581,111.496 77.5,110.5 Z"/></g>
<g><path style="opacity:0.996" fill="#e8fbf8" d="M 128.5,110.5 C 129.656,117.989 129.822,125.655 129,133.5C 127.186,134.851 127.519,135.851 130,136.5C 130.333,143.5 130.667,150.5 131,157.5C 142.753,158.488 154.586,158.821 166.5,158.5C 166.334,151.159 166.5,143.826 167,136.5C 168.768,135.318 168.935,133.985 167.5,132.5C 190.71,132.089 213.043,136.089 234.5,144.5C 239.024,150.331 238.358,155.498 232.5,160C 222.736,164.312 212.736,167.479 202.5,169.5C 193.162,170.116 183.829,170.782 174.5,171.5C 172.167,171.5 169.833,171.5 167.5,171.5C 167.5,193.833 167.5,216.167 167.5,238.5C 154.5,238.5 141.5,238.5 128.5,238.5C 128.5,216.167 128.5,193.833 128.5,171.5C 126.167,171.5 123.833,171.5 121.5,171.5C 105.521,170.948 89.8546,168.448 74.5,164C 69.5537,162.28 65.387,159.446 62,155.5C 61.3333,153.167 61.3333,150.833 62,148.5C 66.3085,143.665 71.4751,140.331 77.5,138.5C 94.279,134.822 111.279,132.822 128.5,132.5C 128.5,125.167 128.5,117.833 128.5,110.5 Z"/></g>
<g><path style="opacity:0.996" fill="#289e7b" d="M 178.5,164.5 C 175.5,164.5 172.5,164.5 169.5,164.5C 143.656,165.441 117.989,163.941 92.5,160C 85.5931,157.739 78.5931,155.906 71.5,154.5C 71.2148,152.712 71.5481,151.045 72.5,149.5C 75.3819,148.039 78.3819,146.873 81.5,146C 92.4935,144.223 103.494,142.556 114.5,141C 115.167,140.333 115.833,139.667 116.5,139C 120.152,138.501 123.818,138.335 127.5,138.5C 127.175,145.687 127.509,152.687 128.5,159.5C 141.5,160.833 154.5,160.833 167.5,159.5C 167.5,152.167 167.5,144.833 167.5,137.5C 186.997,137.942 205.997,141.108 224.5,147C 227.456,147.962 229.79,149.628 231.5,152C 228.164,155.125 224.164,157.125 219.5,158C 206.049,161.614 192.383,163.78 178.5,164.5 Z"/></g>
<g><path style="opacity:0.996" fill="#429c81" d="M 128.5,137.5 C 128.5,144.833 128.5,152.167 128.5,159.5C 127.509,152.687 127.175,145.687 127.5,138.5C 123.818,138.335 120.152,138.501 116.5,139C 115.833,139.667 115.167,140.333 114.5,141C 103.494,142.556 92.4935,144.223 81.5,146C 78.3819,146.873 75.3819,148.039 72.5,149.5C 71.5481,151.045 71.2148,152.712 71.5,154.5C 68.9236,154.278 68.0902,152.945 69,150.5C 72.1371,148.014 75.6371,146.181 79.5,145C 95.5172,140.402 111.851,137.902 128.5,137.5 Z"/></g>
<g><path style="opacity:0.996" fill="#40977c" d="M 71.5,154.5 C 78.5931,155.906 85.5931,157.739 92.5,160C 117.989,163.941 143.656,165.441 169.5,164.5C 155.343,165.496 141.01,165.829 126.5,165.5C 118.814,164.998 111.147,164.332 103.5,163.5C 94.8595,162.22 86.1929,160.387 77.5,158C 75.1209,157.284 73.1209,156.117 71.5,154.5 Z"/></g>
<g><path style="opacity:0.996" fill="#b9e9dc" d="M 128.5,137.5 C 129.492,144.648 129.825,151.981 129.5,159.5C 142.167,159.5 154.833,159.5 167.5,159.5C 154.5,160.833 141.5,160.833 128.5,159.5C 128.5,152.167 128.5,144.833 128.5,137.5 Z"/></g>
<g><path style="opacity:0.996" fill="#fdfefe" d="M 103.5,163.5 C 104.398,164.158 105.398,164.824 106.5,165.5C 112.744,166.292 118.91,167.292 125,168.5C 142.426,167.342 159.926,167.175 177.5,168C 173.779,168.672 170.445,169.839 167.5,171.5C 166.503,193.327 166.169,215.327 166.5,237.5C 154.167,237.5 141.833,237.5 129.5,237.5C 129.526,214.988 129.526,192.655 129.5,170.5C 120.269,168.852 110.936,168.019 101.5,168C 93.7349,166.118 86.0682,164.118 78.5,162C 86.7965,162.604 95.1298,163.104 103.5,163.5 Z"/></g>
<g><path style="opacity:0.996" fill="#a6e4d3" d="M 169.5,164.5 C 172.5,164.5 175.5,164.5 178.5,164.5C 176.708,165.309 174.708,165.809 172.5,166C 156.994,166.828 141.661,166.661 126.5,165.5C 141.01,165.829 155.343,165.496 169.5,164.5 Z"/></g>
<g><path style="opacity:0.996" fill="#6db9a3" d="M 167.5,171.5 C 169.833,171.5 172.167,171.5 174.5,171.5C 172.735,172.461 170.735,172.795 168.5,172.5C 168.5,194.5 168.5,216.5 168.5,238.5C 168.167,238.5 167.833,238.5 167.5,238.5C 167.5,216.167 167.5,193.833 167.5,171.5 Z"/></g>
<g><path style="opacity:0.996" fill="#2a8d70" d="M 202.5,169.5 C 203.738,169.81 203.738,170.31 202.5,171C 197.167,171.333 191.833,171.667 186.5,172C 184.919,172.707 183.419,173.54 182,174.5C 177.934,173.536 173.767,173.203 169.5,173.5C 169.831,195.34 169.497,217.006 168.5,238.5C 168.5,216.5 168.5,194.5 168.5,172.5C 170.735,172.795 172.735,172.461 174.5,171.5C 183.829,170.782 193.162,170.116 202.5,169.5 Z"/></g>
<g><path style="opacity:0.996" fill="#579f8b" d="M 121.5,171.5 C 123.833,171.5 126.167,171.5 128.5,171.5C 128.5,193.833 128.5,216.167 128.5,238.5C 127.503,216.673 127.169,194.673 127.5,172.5C 125.265,172.795 123.265,172.461 121.5,171.5 Z"/></g>
<g><path style="opacity:0.012" fill="#42a286" d="M -0.5,173.5 C -0.166667,173.5 0.166667,173.5 0.5,173.5C 0.5,175.5 0.5,177.5 0.5,179.5C 0.166667,179.5 -0.166667,179.5 -0.5,179.5C -0.5,177.5 -0.5,175.5 -0.5,173.5 Z"/></g>
<g><path style="opacity:0.006" fill="#369b7c" d="M 298.5,174.5 C 298.833,174.5 299.167,174.5 299.5,174.5C 299.5,176.167 299.5,177.833 299.5,179.5C 299.167,179.5 298.833,179.5 298.5,179.5C 298.5,177.833 298.5,176.167 298.5,174.5 Z"/></g>
<g><path style="opacity:0.014" fill="#3c9b7f" d="M 296.5,184.5 C 296.833,184.5 297.167,184.5 297.5,184.5C 297.768,186.099 297.434,187.432 296.5,188.5C 296.5,187.167 296.5,185.833 296.5,184.5 Z"/></g>
<g><path style="opacity:0.004" fill="#28a07b" d="M 299.5,188.5 C 299.5,188.833 299.5,189.167 299.5,189.5C 298.83,189.019 298.83,188.685 299.5,188.5 Z"/></g>
<g><path style="opacity:0.012" fill="#389a7d" d="M 295.5,188.5 C 295.833,188.5 296.167,188.5 296.5,188.5C 296.737,189.791 296.404,190.791 295.5,191.5C 295.5,190.5 295.5,189.5 295.5,188.5 Z"/></g>
<g><path style="opacity:0.004" fill="#289f7a" d="M 0.5,191.5 C 1.83333,192.167 1.83333,192.167 0.5,191.5 Z"/></g>
<g><path style="opacity:0.02" fill="#4aad90" d="M 3.5,191.5 C 3.83333,191.5 4.16667,191.5 4.5,191.5C 4.5,192.5 4.5,193.5 4.5,194.5C 3.59603,193.791 3.26269,192.791 3.5,191.5 Z"/></g>
<g><path style="opacity:0.016" fill="#37997c" d="M 294.5,191.5 C 294.833,191.5 295.167,191.5 295.5,191.5C 295.167,195.5 294.833,195.5 294.5,191.5 Z"/></g>
<g><path style="opacity:0.012" fill="#3a9a7e" d="M 293.5,195.5 C 294.833,196.5 294.833,197.5 293.5,198.5C 293.5,197.5 293.5,196.5 293.5,195.5 Z"/></g>
<g><path style="opacity:0.016" fill="#45aa8c" d="M 5.5,197.5 C 5.83333,197.5 6.16667,197.5 6.5,197.5C 6.5,198.5 6.5,199.5 6.5,200.5C 4.51877,199.895 4.18543,198.895 5.5,197.5 Z"/></g>
<g><path style="opacity:0.012" fill="#3a9a7e" d="M 292.5,198.5 C 292.833,198.5 293.167,198.5 293.5,198.5C 293.672,199.492 293.338,200.158 292.5,200.5C 292.5,199.833 292.5,199.167 292.5,198.5 Z"/></g>
<g><path style="opacity:0.004" fill="#299f7a" d="M 3.5,200.5 C 4.83333,201.167 4.83333,201.167 3.5,200.5 Z"/></g>
<g><path style="opacity:0.012" fill="#45a68a" d="M 7.5,203.5 C 7.83333,203.5 8.16667,203.5 8.5,203.5C 8.16667,206.167 7.83333,206.167 7.5,203.5 Z"/></g>
<g><path style="opacity:0.016" fill="#3a9b7e" d="M 290.5,203.5 C 290.833,203.5 291.167,203.5 291.5,203.5C 291.737,204.791 291.404,205.791 290.5,206.5C 290.5,205.5 290.5,204.5 290.5,203.5 Z"/></g>
<g><path style="opacity:0.012" fill="#3c9c7f" d="M 289.5,206.5 C 289.833,206.5 290.167,206.5 290.5,206.5C 290.672,207.492 290.338,208.158 289.5,208.5C 289.5,207.833 289.5,207.167 289.5,206.5 Z"/></g>
<g><path style="opacity:0.004" fill="#2aa07b" d="M 6.5,207.5 C 7.83333,208.167 7.83333,208.167 6.5,207.5 Z"/></g>
<g><path style="opacity:0.008" fill="#41a487" d="M 10.5,208.5 C 10.5,209.167 10.5,209.833 10.5,210.5C 9.16667,209.833 9.16667,209.167 10.5,208.5 Z"/></g>
<g><path style="opacity:0.012" fill="#3d9d81" d="M 288.5,208.5 C 288.833,208.5 289.167,208.5 289.5,208.5C 291.031,209.925 290.698,210.591 288.5,210.5C 288.5,209.833 288.5,209.167 288.5,208.5 Z"/></g>
<g><path style="opacity:0.012" fill="#43a083" d="M 12.5,214.5 C 12.8333,214.5 13.1667,214.5 13.5,214.5C 13.5,215.167 13.5,215.833 13.5,216.5C 12.6618,216.158 12.3284,215.492 12.5,214.5 Z"/></g>
<g><path style="opacity:0.004" fill="#4cb294" d="M 287.5,215.5 C 288.833,216.167 288.833,216.167 287.5,215.5 Z"/></g>
<g><path style="opacity:0.012" fill="#43a084" d="M 13.5,216.5 C 13.8333,216.5 14.1667,216.5 14.5,216.5C 14.1667,219.167 13.8333,219.167 13.5,216.5 Z"/></g>
<g><path style="opacity:0.004" fill="#279a76" d="M 10.5,220.5 C 11.525,220.897 11.6917,221.563 11,222.5C 10.5357,221.906 10.369,221.239 10.5,220.5 Z"/></g>
<g><path style="opacity:0.004" fill="#2ea782" d="M 13.5,220.5 C 14.8333,221.167 14.8333,221.167 13.5,220.5 Z"/></g>
<g><path style="opacity:0.012" fill="#409f83" d="M 16.5,220.5 C 16.5,221.167 16.5,221.833 16.5,222.5C 15.1667,221.833 15.1667,221.167 16.5,220.5 Z"/></g>
<g><path style="opacity:0.008" fill="#49a488" d="M 16.5,222.5 C 16.8333,222.5 17.1667,222.5 17.5,222.5C 17.5,223.167 17.5,223.833 17.5,224.5C 16.6618,224.158 16.3284,223.492 16.5,222.5 Z"/></g>
<g><path style="opacity:0.004" fill="#289e79" d="M 283.5,228.5 C 284.833,229.167 284.833,229.167 283.5,228.5 Z"/></g>
<g><path style="opacity:0.004" fill="#29a07b" d="M 280.5,230.5 C 281.833,231.167 281.833,231.167 280.5,230.5 Z"/></g>
<g><path style="opacity:0.008" fill="#3d9e82" d="M 275.5,232.5 C 275.833,232.5 276.167,232.5 276.5,232.5C 276.672,233.492 276.338,234.158 275.5,234.5C 275.5,233.833 275.5,233.167 275.5,232.5 Z"/></g>
<g><path style="opacity:0.012" fill="#3d9e81" d="M 274.5,234.5 C 274.833,234.5 275.167,234.5 275.5,234.5C 275.315,235.17 274.981,235.17 274.5,234.5 Z"/></g>
<g><path style="opacity:0.016" fill="#3c9d80" d="M 271.5,238.5 C 271.833,238.5 272.167,238.5 272.5,238.5C 272.315,239.17 271.981,239.17 271.5,238.5 Z"/></g>
<g><path style="opacity:0.004" fill="#299f7a" d="M 23.5,239.5 C 24.8333,240.167 24.8333,240.167 23.5,239.5 Z"/></g>
<g><path style="opacity:0.016" fill="#3a9d7f" d="M 268.5,242.5 C 268.833,242.5 269.167,242.5 269.5,242.5C 269.315,243.17 268.981,243.17 268.5,242.5 Z"/></g>
<g><path style="opacity:0.004" fill="#269371" d="M 23.5,243.5 C 24.8333,244.167 24.8333,244.167 23.5,243.5 Z"/></g>
<g><path style="opacity:0.004" fill="#299f7a" d="M 27.5,243.5 C 28.8333,244.167 28.8333,244.167 27.5,243.5 Z"/></g>
<g><path style="opacity:0.004" fill="#31aa85" d="M 269.5,245.5 C 270.833,246.167 270.833,246.167 269.5,245.5 Z"/></g>
<g><path style="opacity:0.02" fill="#3e9e80" d="M 263.5,248.5 C 263.833,248.5 264.167,248.5 264.5,248.5C 264.315,249.17 263.981,249.17 263.5,248.5 Z"/></g>
<g><path style="opacity:0.016" fill="#3b9d7e" d="M 262.5,249.5 C 262.833,249.5 263.167,249.5 263.5,249.5C 263.315,250.17 262.981,250.17 262.5,249.5 Z"/></g>
<g><path style="opacity:0.004" fill="#299f7a" d="M 36.5,254.5 C 37.8333,255.167 37.8333,255.167 36.5,254.5 Z"/></g>
<g><path style="opacity:0.004" fill="#269371" d="M 31.5,255.5 C 32.8333,256.167 32.8333,256.167 31.5,255.5 Z"/></g>
<g><path style="opacity:0.004" fill="#50b596" d="M 258.5,257.5 C 259.833,258.167 259.833,258.167 258.5,257.5 Z"/></g>
<g><path style="opacity:0.008" fill="#369a7d" d="M 252.5,259.5 C 252.833,259.5 253.167,259.5 253.5,259.5C 253.5,261.5 252.5,262.5 250.5,262.5C 250.5,262.167 250.5,261.833 250.5,261.5C 251.167,261.5 251.5,261.167 251.5,260.5C 252.167,260.5 252.5,260.167 252.5,259.5 Z"/></g>
<g><path style="opacity:0.004" fill="#269371" d="M 40.5,262.5 C 41.8333,263.167 41.8333,263.167 40.5,262.5 Z"/></g>
<g><path style="opacity:0.016" fill="#3b9d7f" d="M 249.5,262.5 C 249.833,262.5 250.167,262.5 250.5,262.5C 250.315,263.17 249.981,263.17 249.5,262.5 Z"/></g>
<g><path style="opacity:0.004" fill="#29a37d" d="M 46.5,263.5 C 47.8333,264.167 47.8333,264.167 46.5,263.5 Z"/></g>
<g><path style="opacity:0.008" fill="#349779" d="M 52.5,264.5 C 53.1667,264.5 53.5,264.833 53.5,265.5C 53.5,265.833 53.5,266.167 53.5,266.5C 50.5404,265.968 50.2071,265.301 52.5,264.5 Z"/></g>
<g><path style="opacity:0.012" fill="#399b7d" d="M 246.5,265.5 C 246.833,265.5 247.167,265.5 247.5,265.5C 247.315,266.17 246.981,266.17 246.5,265.5 Z"/></g>
<g><path style="opacity:0.01" fill="#379a7e" d="M 244.5,267.5 C 244.5,267.167 244.5,266.833 244.5,266.5C 245.167,266.5 245.833,266.5 246.5,266.5C 246.158,267.338 245.492,267.672 244.5,267.5 Z"/></g>
<g><path style="opacity:0.016" fill="#379b7d" d="M 243.5,267.5 C 243.833,267.5 244.167,267.5 244.5,267.5C 244.315,268.17 243.981,268.17 243.5,267.5 Z"/></g>
<g><path style="opacity:0.016" fill="#389b7d" d="M 242.5,268.5 C 242.833,268.5 243.167,268.5 243.5,268.5C 243.315,269.17 242.981,269.17 242.5,268.5 Z"/></g>
<g><path style="opacity:0.008" fill="#389a7d" d="M 241.5,269.5 C 241.833,269.5 242.167,269.5 242.5,269.5C 242.315,270.17 241.981,270.17 241.5,269.5 Z"/></g>
<g><path style="opacity:0.004" fill="#389b7e" d="M 239.5,271.5 C 239.5,271.167 239.5,270.833 239.5,270.5C 240.167,270.5 240.833,270.5 241.5,270.5C 241.158,271.338 240.492,271.672 239.5,271.5 Z"/></g>
<g><path style="opacity:0.008" fill="#399b7f" d="M 238.5,271.5 C 238.833,271.5 239.167,271.5 239.5,271.5C 239.289,273.424 238.623,273.757 237.5,272.5C 238.167,272.5 238.5,272.167 238.5,271.5 Z"/></g>
<g><path style="opacity:0.012" fill="#369a7c" d="M 235.5,273.5 C 236.833,274.167 236.833,274.167 235.5,273.5 Z"/></g>
<g><path style="opacity:0.012" fill="#379a7c" d="M 234.5,274.5 C 234.833,274.5 235.167,274.5 235.5,274.5C 235.315,275.17 234.981,275.17 234.5,274.5 Z"/></g>
<g><path style="opacity:0.008" fill="#36997d" d="M 232.5,276.5 C 232.5,276.167 232.5,275.833 232.5,275.5C 233.167,275.5 233.833,275.5 234.5,275.5C 234.158,276.338 233.492,276.672 232.5,276.5 Z"/></g>
<g><path style="opacity:0.004" fill="#289f7a" d="M 238.5,275.5 C 239.833,276.167 239.833,276.167 238.5,275.5 Z"/></g>
<g><path style="opacity:0.004" fill="#2da581" d="M 62.5,277.5 C 62.8966,276.475 63.5632,276.308 64.5,277C 63.9056,277.464 63.2389,277.631 62.5,277.5 Z"/></g>
<g><path style="opacity:0.012" fill="#36997c" d="M 231.5,276.5 C 231.833,276.5 232.167,276.5 232.5,276.5C 232.315,277.17 231.981,277.17 231.5,276.5 Z"/></g>
<g><path style="opacity:0.004" fill="#279a76" d="M 60.5,277.5 C 61.8333,278.167 61.8333,278.167 60.5,277.5 Z"/></g>
<g><path style="opacity:0.008" fill="#35987b" d="M 229.5,278.5 C 229.5,278.167 229.5,277.833 229.5,277.5C 230.167,277.5 230.833,277.5 231.5,277.5C 231.158,278.338 230.492,278.672 229.5,278.5 Z"/></g>
<g><path style="opacity:0.008" fill="#35997b" d="M 227.5,279.5 C 227.5,279.167 227.5,278.833 227.5,278.5C 228.167,278.5 228.833,278.5 229.5,278.5C 229.158,279.338 228.492,279.672 227.5,279.5 Z"/></g>
<g><path style="opacity:0.012" fill="#35997b" d="M 226.5,279.5 C 226.833,279.5 227.167,279.5 227.5,279.5C 227.315,280.17 226.981,280.17 226.5,279.5 Z"/></g>
<g><path style="opacity:0.004" fill="#35997c" d="M 72.5,279.5 C 72.631,280.239 72.4643,280.906 72,281.5C 71.3083,280.563 71.475,279.897 72.5,279.5 Z"/></g>
<g><path style="opacity:0.01" fill="#369a7d" d="M 224.5,281.5 C 224.5,281.167 224.5,280.833 224.5,280.5C 225.167,280.5 225.833,280.5 226.5,280.5C 226.5,280.833 226.5,281.167 226.5,281.5C 225.833,281.5 225.167,281.5 224.5,281.5 Z"/></g>
<g><path style="opacity:0.006" fill="#34997b" d="M 222.5,282.5 C 222.5,282.167 222.5,281.833 222.5,281.5C 223.167,281.5 223.833,281.5 224.5,281.5C 224.158,282.338 223.492,282.672 222.5,282.5 Z"/></g>
<g><path style="opacity:0.004" fill="#3f9f83" d="M 226.5,281.5 C 227.833,282.167 227.833,282.167 226.5,281.5 Z"/></g>
<g><path style="opacity:0.012" fill="#35997b" d="M 221.5,282.5 C 221.833,282.5 222.167,282.5 222.5,282.5C 222.315,283.17 221.981,283.17 221.5,282.5 Z"/></g>
<g><path style="opacity:0.012" fill="#359a7c" d="M 219.5,283.5 C 220.833,284.167 220.833,284.167 219.5,283.5 Z"/></g>
<g><path style="opacity:0.01" fill="#379a7e" d="M 217.5,285.5 C 217.5,285.167 217.5,284.833 217.5,284.5C 218.167,284.5 218.833,284.5 219.5,284.5C 219.158,285.338 218.492,285.672 217.5,285.5 Z"/></g>
<g><path style="opacity:0.004" fill="#269371" d="M 71.5,285.5 C 72.8333,286.167 72.8333,286.167 71.5,285.5 Z"/></g>
<g><path style="opacity:0.004" fill="#2ba07b" d="M 75.5,285.5 C 76.8333,286.167 76.8333,286.167 75.5,285.5 Z"/></g>
<g><path style="opacity:0.008" fill="#379b7e" d="M 215.5,286.5 C 215.5,286.167 215.5,285.833 215.5,285.5C 216.167,285.5 216.833,285.5 217.5,285.5C 217.158,286.338 216.492,286.672 215.5,286.5 Z"/></g>
<g><path style="opacity:0.004" fill="#389b7e" d="M 213.5,287.5 C 213.5,287.167 213.5,286.833 213.5,286.5C 214.167,286.5 214.833,286.5 215.5,286.5C 215.158,287.338 214.492,287.672 213.5,287.5 Z"/></g>
<g><path style="opacity:0.004" fill="#2ba27d" d="M 219.5,286.5 C 220.833,287.167 220.833,287.167 219.5,286.5 Z"/></g>
<g><path style="opacity:0.004" fill="#269371" d="M 227.5,286.5 C 228.833,287.167 228.833,287.167 227.5,286.5 Z"/></g>
<g><path style="opacity:0.008" fill="#36997c" d="M 210.5,288.5 C 210.5,288.167 210.5,287.833 210.5,287.5C 211.5,287.5 212.5,287.5 213.5,287.5C 212.791,288.404 211.791,288.737 210.5,288.5 Z"/></g>
<g><path style="opacity:0.01" fill="#35987a" d="M 208.5,289.5 C 208.5,289.167 208.5,288.833 208.5,288.5C 209.167,288.5 209.833,288.5 210.5,288.5C 210.5,288.833 210.5,289.167 210.5,289.5C 209.833,289.5 209.167,289.5 208.5,289.5 Z"/></g>
<g><path style="opacity:0.007" fill="#369c7e" d="M 93.5,289.5 C 92.828,290.267 91.9947,290.934 91,291.5C 90.8119,289.939 91.6453,289.272 93.5,289.5 Z"/></g>
<g><path style="opacity:0.012" fill="#339879" d="M 206.5,290.5 C 206.5,290.167 206.5,289.833 206.5,289.5C 207.167,289.5 207.833,289.5 208.5,289.5C 208.158,290.338 207.492,290.672 206.5,290.5 Z"/></g>
<g><path style="opacity:0.004" fill="#3fa182" d="M 210.5,289.5 C 211.833,290.167 211.833,290.167 210.5,289.5 Z"/></g>
<g><path style="opacity:0.008" fill="#36987b" d="M 203.5,291.5 C 203.5,291.167 203.5,290.833 203.5,290.5C 204.5,290.5 205.5,290.5 206.5,290.5C 205.791,291.404 204.791,291.737 203.5,291.5 Z"/></g>
<g><path style="opacity:0.008" fill="#37997d" d="M 201.5,292.5 C 201.5,292.167 201.5,291.833 201.5,291.5C 202.167,291.5 202.833,291.5 203.5,291.5C 203.158,292.338 202.492,292.672 201.5,292.5 Z"/></g>
<g><path style="opacity:0.008" fill="#36987c" d="M 198.5,293.5 C 198.5,293.167 198.5,292.833 198.5,292.5C 199.5,292.5 200.5,292.5 201.5,292.5C 201.5,292.833 201.5,293.167 201.5,293.5C 200.5,293.5 199.5,293.5 198.5,293.5 Z"/></g>
<g><path style="opacity:0.012" fill="#389c7f" d="M 104.5,293.5 C 104.5,293.833 104.5,294.167 104.5,294.5C 103.233,295.087 102.233,295.087 101.5,294.5C 102.325,293.614 103.325,293.281 104.5,293.5 Z"/></g>
<g><path style="opacity:0.004" fill="#36a885" d="M 201.5,293.5 C 202.833,294.167 202.833,294.167 201.5,293.5 Z"/></g>
<g><path style="opacity:0.016" fill="#389b7e" d="M 104.5,294.5 C 105.5,294.5 106.5,294.5 107.5,294.5C 107.5,294.833 107.5,295.167 107.5,295.5C 106.504,295.414 105.671,295.748 105,296.5C 104.536,295.906 104.369,295.239 104.5,294.5 Z"/></g>
<g><path style="opacity:0.007" fill="#36997d" d="M 195.5,293.5 C 196.5,293.5 197.5,293.5 198.5,293.5C 196.37,295.44 194.036,296.106 191.5,295.5C 191.5,295.167 191.5,294.833 191.5,294.5C 193.099,294.768 194.432,294.434 195.5,293.5 Z"/></g>
<g><path style="opacity:0.004" fill="#279472" d="M 211.5,294.5 C 212.833,295.167 212.833,295.167 211.5,294.5 Z"/></g>
<g><path style="opacity:0.004" fill="#269472" d="M 87.5,295.5 C 88.8333,296.167 88.8333,296.167 87.5,295.5 Z"/></g>
<g><path style="opacity:0.004" fill="#289a77" d="M 90.5,295.5 C 91.8333,296.167 91.8333,296.167 90.5,295.5 Z"/></g>
<g><path style="opacity:0.012" fill="#399a7f" d="M 107.5,295.5 C 108.5,295.5 109.5,295.5 110.5,295.5C 109.5,296.833 108.5,296.833 107.5,295.5 Z"/></g>
<g><path style="opacity:0.982" fill="#319578" d="M 251.5,259.5 C 251.5,259.833 251.5,260.167 251.5,260.5C 250.833,260.5 250.5,260.833 250.5,261.5C 249.833,261.5 249.5,261.833 249.5,262.5C 248.167,262.833 248.167,263.167 249.5,263.5C 249.167,264.5 248.5,265.167 247.5,265.5C 247.167,264.167 246.833,264.167 246.5,265.5C 245.508,265.328 244.842,265.662 244.5,266.5C 243.833,266.5 243.5,266.833 243.5,267.5C 242.833,267.5 242.5,267.833 242.5,268.5C 241.833,268.5 241.5,268.833 241.5,269.5C 240.508,269.328 239.842,269.662 239.5,270.5C 238.833,270.5 238.5,270.833 238.5,271.5C 237.833,271.5 237.5,271.833 237.5,272.5C 236.508,272.328 235.842,272.662 235.5,273.5C 234.833,273.5 234.5,273.833 234.5,274.5C 233.508,274.328 232.842,274.662 232.5,275.5C 231.833,275.5 231.5,275.833 231.5,276.5C 230.508,276.328 229.842,276.662 229.5,277.5C 228.508,277.328 227.842,277.662 227.5,278.5C 226.833,278.5 226.5,278.833 226.5,279.5C 225.508,279.328 224.842,279.662 224.5,280.5C 223.508,280.328 222.842,280.662 222.5,281.5C 221.833,281.5 221.5,281.833 221.5,282.5C 220.508,282.328 219.842,282.662 219.5,283.5C 218.508,283.328 217.842,283.662 217.5,284.5C 216.508,284.328 215.842,284.662 215.5,285.5C 214.508,285.328 213.842,285.662 213.5,286.5C 212.209,286.263 211.209,286.596 210.5,287.5C 209.508,287.328 208.842,287.662 208.5,288.5C 207.508,288.328 206.842,288.662 206.5,289.5C 205.209,289.263 204.209,289.596 203.5,290.5C 202.508,290.328 201.842,290.662 201.5,291.5C 200.209,291.263 199.209,291.596 198.5,292.5C 197.209,292.263 196.209,292.596 195.5,293.5C 193.901,293.232 192.568,293.566 191.5,294.5C 190.209,294.263 189.209,294.596 188.5,295.5C 185.219,295.42 182.219,296.087 179.5,297.5C 174.951,297.624 170.618,298.291 166.5,299.5C 158.167,299.5 149.833,299.5 141.5,299.5C 139.369,298.686 137.036,298.186 134.5,298C 144.5,297.667 154.5,297.333 164.5,297C 197.372,293.716 225.706,281.05 249.5,259C 250.437,258.308 251.103,258.475 251.5,259.5 Z"/></g>
<g><path style="opacity:0.004" fill="#2ba17d" d="M 197.5,295.5 C 198.833,296.167 198.833,296.167 197.5,295.5 Z"/></g>
<g><path style="opacity:0.016" fill="#379b7e" d="M 115.5,296.5 C 114.469,297.249 113.302,297.915 112,298.5C 111.833,298.167 111.667,297.833 111.5,297.5C 112.689,296.571 114.022,296.238 115.5,296.5 Z"/></g>
<g><path style="opacity:0.004" fill="#359b7d" d="M 188.5,295.5 C 189.5,295.5 190.5,295.5 191.5,295.5C 190.531,296.309 189.698,297.309 189,298.5C 187.601,297.773 186.101,297.273 184.5,297C 186.058,296.79 187.391,296.29 188.5,295.5 Z"/></g>
<g><path style="opacity:0.012" fill="#349779" d="M 179.5,298.5 C 179.5,298.167 179.5,297.833 179.5,297.5C 184.833,297.833 184.833,298.167 179.5,298.5 Z"/></g>
<g><path style="opacity:0.014" fill="#329477" d="M 174.5,299.5 C 175.919,298.549 177.585,298.216 179.5,298.5C 179.5,298.833 179.5,299.167 179.5,299.5C 177.833,299.5 176.167,299.5 174.5,299.5 Z"/></g>
</svg>
